<svg width="414" height="896" viewBox="0 0 414 896" fill="none" xmlns="http://www.w3.org/2000/svg">
<g opacity="0.08">
<path d="M230.076 516.624C230.499 513.671 231.524 510.778 233.093 508.367C241.419 495.047 258.917 495.349 267.967 507.403C270.32 510.477 272.07 514.334 272.492 518.553C272.915 522.712 271.829 527.232 269.234 530.004C266.64 532.777 262.537 533.44 259.641 531.089C258.434 530.125 257.288 528.739 256.564 527.413C255.779 525.966 254.995 524.459 253.426 523.796C252.762 523.495 251.978 523.435 251.254 523.435C248.901 523.555 246.97 524.7 245.884 526.75C244.979 528.437 244.074 530.366 242.204 531.21C240.937 531.752 239.549 531.752 238.222 531.39C231.283 529.643 229.171 523.073 230.076 516.624Z" fill="#00C2CB"/>
<path d="M239.73 482.511C233.877 484.681 232.671 493.24 238.885 495.771C241.54 496.856 244.798 496.132 246.729 494.023C248.66 491.914 249.142 488.599 247.815 486.067C246.427 483.295 242.807 481.366 239.73 482.511Z" fill="#00C2CB"/>
<path d="M258.374 482.511C252.521 484.681 251.314 493.239 257.529 495.77C260.184 496.855 263.442 496.132 265.373 494.023C267.303 491.913 267.786 488.598 266.459 486.067C265.071 483.294 261.39 481.366 258.374 482.511Z" fill="#00C2CB"/>
<path d="M273.82 494.565C268.932 495.65 267.484 502.219 271.104 505.534C273.82 508.066 278.646 507.644 280.939 504.751C284.982 499.628 279.732 493.299 273.82 494.565Z" fill="#00C2CB"/>
<path d="M224.887 494.565C220 495.65 218.552 502.219 222.172 505.534C224.887 508.066 229.714 507.644 232.007 504.751C236.11 499.628 230.861 493.299 224.887 494.565Z" fill="#00C2CB"/>
<path d="M24.4525 607.633C25.6592 604.92 27.4692 602.389 29.581 600.46C41.1654 589.853 57.9388 594.855 63.4293 608.898C64.8774 612.515 65.5411 616.673 64.817 620.832C64.093 624.99 61.8003 629.029 58.6025 631.018C55.3443 633.006 51.1812 632.524 49.0694 629.511C48.1644 628.245 47.4404 626.618 47.1387 625.111C46.7767 623.484 46.4147 621.856 45.0873 620.772C44.4839 620.289 43.8202 620.048 43.0962 619.867C40.8034 619.325 38.6313 619.928 37.0626 621.676C35.7352 623.062 34.3475 624.689 32.3564 624.99C30.9687 625.171 29.6413 624.749 28.4346 624.086C22.0994 620.47 21.7977 613.599 24.4525 607.633Z" fill="#00C2CB"/>
<path d="M42.9152 577.376C36.7006 577.919 33.2011 585.814 38.5107 589.913C40.7431 591.661 44.1219 591.841 46.5353 590.335C48.9488 588.828 50.2761 585.754 49.7331 582.982C49.1901 579.908 46.1733 577.135 42.9152 577.376Z" fill="#00C2CB"/>
<path d="M60.8348 582.379C54.6203 582.921 51.1208 590.817 56.4303 594.915C58.6628 596.663 62.0415 596.844 64.455 595.337C66.8684 593.83 68.1958 590.756 67.6528 587.984C67.1098 584.91 64.093 582.138 60.8348 582.379Z" fill="#00C2CB"/>
<path d="M72.4797 598.17C67.4718 597.868 64.274 603.835 66.8684 608.054C68.7992 611.188 73.5657 612.152 76.5221 609.983C81.892 606.005 78.5132 598.471 72.4797 598.17Z" fill="#00C2CB"/>
<path d="M25.3575 585.031C20.3497 584.73 17.1519 590.696 19.7463 594.915C21.677 598.049 26.4436 599.014 29.4 596.844C34.7699 592.866 31.4514 585.332 25.3575 585.031Z" fill="#00C2CB"/>
<path d="M394.672 443.395C396.18 440.864 398.292 438.574 400.585 436.886C413.376 427.725 429.425 434.716 433.227 449.302C434.192 453.039 434.373 457.318 433.166 461.296C431.96 465.334 429.244 469.071 425.745 470.638C422.306 472.205 418.203 471.24 416.453 467.986C415.729 466.66 415.186 464.912 415.066 463.405C414.885 461.778 414.764 460.09 413.557 458.885C413.014 458.342 412.35 457.981 411.687 457.74C409.454 456.956 407.222 457.318 405.472 458.764C404.024 460.03 402.395 461.416 400.404 461.476C399.016 461.476 397.749 460.934 396.663 460.09C390.811 455.871 391.354 449.001 394.672 443.395Z" fill="#00C2CB"/>
<path d="M416.634 415.551C410.42 415.31 405.955 422.783 410.782 427.484C412.833 429.473 416.152 430.076 418.746 428.87C421.34 427.665 423.03 424.772 422.788 421.939C422.547 418.805 419.892 415.671 416.634 415.551Z" fill="#00C2CB"/>
<path d="M398.292 421.035C393.345 420.191 389.483 425.676 391.595 430.136C393.103 433.511 397.749 434.957 400.947 433.149C406.739 429.895 404.265 422.06 398.292 421.035Z" fill="#00C2CB"/>
<path d="M220.423 324.18C219.88 321.287 219.88 318.213 220.543 315.381C223.982 300.072 240.635 294.648 253.185 303.025C256.443 305.195 259.339 308.209 261.149 312.066C262.899 315.863 263.382 320.504 261.813 323.939C260.305 327.435 256.624 329.424 253.125 328.098C251.677 327.555 250.168 326.651 249.022 325.627C247.815 324.542 246.608 323.336 244.859 323.276C244.135 323.216 243.35 323.397 242.687 323.698C240.454 324.602 239.066 326.29 238.765 328.58C238.523 330.509 238.282 332.618 236.774 334.004C235.748 334.969 234.421 335.391 233.033 335.511C225.853 336.054 221.69 330.569 220.423 324.18Z" fill="#00C2CB"/>
<path d="M220.423 53.8258C219.88 50.9328 219.88 47.859 220.543 45.0263C223.982 29.7176 240.635 24.2932 253.185 32.6708C256.443 34.8406 259.339 37.8541 261.149 41.7114C262.899 45.5084 263.382 50.1493 261.813 53.5847C260.305 57.0804 256.624 59.0693 253.125 57.7433C251.677 57.2009 250.168 56.2969 249.022 55.2723C247.815 54.1874 246.608 52.982 244.859 52.9217C244.135 52.8614 243.35 53.0423 242.687 53.3436C240.454 54.2477 239.066 55.9352 238.765 58.2255C238.523 60.1542 238.282 62.2636 236.774 63.6498C235.748 64.6142 234.421 65.0361 233.033 65.1566C225.853 65.699 221.69 60.2144 220.423 53.8258Z" fill="#00C2CB"/>
<path d="M218.311 288.802C213.484 292.78 215.173 301.278 221.871 301.639C224.707 301.76 227.603 300.012 228.689 297.42C229.835 294.829 229.171 291.514 227.12 289.525C224.888 287.295 220.845 286.692 218.311 288.802Z" fill="#00C2CB"/>
<path d="M235.929 282.654C231.102 286.632 232.791 295.13 239.489 295.492C242.324 295.612 245.221 293.864 246.307 291.273C247.453 288.681 246.789 285.366 244.738 283.377C242.505 281.208 238.403 280.605 235.929 282.654Z" fill="#00C2CB"/>
<path d="M254.452 288.982C250.168 291.634 250.953 298.264 255.478 300.253C258.856 301.76 263.261 299.771 264.468 296.335C266.7 290.067 259.641 285.788 254.452 288.982Z" fill="#00C2CB"/>
<path d="M208.295 305.014C204.011 307.666 204.796 314.296 209.321 316.285C212.7 317.792 217.104 315.803 218.311 312.367C220.483 306.099 213.484 301.88 208.295 305.014Z" fill="#00C2CB"/>
<path d="M218.311 18.4472C213.484 22.4251 215.173 30.9232 221.871 31.2848C224.707 31.4054 227.603 29.6575 228.689 27.0659C229.835 24.4743 229.171 21.1594 227.12 19.1705C224.888 16.9405 220.845 16.3378 218.311 18.4472Z" fill="#00C2CB"/>
<path d="M235.929 12.2996C231.102 16.2774 232.791 24.7755 239.489 25.1372C242.324 25.2577 245.221 23.5099 246.307 20.9182C247.453 18.3266 246.789 15.0117 244.738 13.0228C242.505 10.8531 238.403 10.2504 235.929 12.2996Z" fill="#00C2CB"/>
<path d="M254.452 18.6278C250.168 21.2797 250.953 27.9094 255.478 29.8983C258.856 31.4051 263.261 29.4162 264.468 25.9808C266.7 19.7126 259.641 15.4334 254.452 18.6278Z" fill="#00C2CB"/>
<path d="M208.295 34.6599C204.011 37.3118 204.796 43.9415 209.321 45.9304C212.7 47.4372 217.104 45.4483 218.311 42.0128C220.483 35.7447 213.484 31.5258 208.295 34.6599Z" fill="#00C2CB"/>
<path d="M24.3921 357.269C25.5988 354.557 27.4692 352.086 29.581 350.157C41.2861 339.67 57.9991 344.914 63.369 359.017C64.7567 362.633 65.36 366.852 64.5757 370.95C63.7913 375.049 61.4986 379.087 58.1801 381.016C54.922 382.944 50.7588 382.462 48.6471 379.388C47.8024 378.123 47.0783 376.495 46.7767 374.989C46.4146 373.361 46.113 371.734 44.7856 370.649C44.1822 370.167 43.5185 369.866 42.7945 369.685C40.5017 369.142 38.3297 369.685 36.7006 371.372C35.3732 372.759 33.9252 374.386 31.9341 374.627C30.5464 374.808 29.219 374.386 28.0123 373.663C21.9184 370.046 21.677 363.176 24.3921 357.269Z" fill="#00C2CB"/>
<path d="M43.2771 327.194C37.0625 327.616 33.4424 335.511 38.7519 339.73C40.9844 341.478 44.3632 341.719 46.7766 340.273C49.2503 338.826 50.5777 335.752 50.095 332.92C49.4917 329.786 46.4749 326.953 43.2771 327.194Z" fill="#00C2CB"/>
<path d="M61.1365 332.438C54.922 332.86 51.3018 340.755 56.6114 344.974C58.8438 346.722 62.2226 346.963 64.636 345.516C67.1098 344.07 68.4372 340.996 67.9545 338.163C67.3511 335.029 64.3947 332.197 61.1365 332.438Z" fill="#00C2CB"/>
<path d="M72.54 348.349C67.5321 347.987 64.274 353.894 66.8081 358.113C68.6785 361.247 73.445 362.271 76.4618 360.162C81.892 356.305 78.6339 348.771 72.54 348.349Z" fill="#00C2CB"/>
<path d="M25.5988 334.607C20.591 334.246 17.3328 340.152 19.8669 344.371C21.7373 347.505 26.5039 348.53 29.5206 346.42C34.9509 342.563 31.6927 335.029 25.5988 334.607Z" fill="#00C2CB"/>
<path d="M134.806 173.444C136.013 170.732 137.883 168.261 139.995 166.332C151.7 155.845 168.413 161.088 173.783 175.192C175.171 178.808 175.774 183.027 174.99 187.125C174.206 191.224 171.913 195.262 168.594 197.19C165.336 199.119 161.173 198.637 159.061 195.563C158.217 194.297 157.493 192.67 157.191 191.163C156.829 189.536 156.527 187.909 155.2 186.824C154.596 186.342 153.933 186.04 153.209 185.86C150.916 185.317 148.744 185.86 147.115 187.547C145.787 188.933 144.339 190.561 142.348 190.802C140.961 190.983 139.633 190.561 138.426 189.837C132.333 186.221 132.091 179.35 134.806 173.444Z" fill="#00C2CB"/>
<path d="M153.691 143.369C147.477 143.791 143.857 151.686 149.166 155.905C151.399 157.653 154.777 157.894 157.191 156.448C159.665 155.001 160.992 151.927 160.509 149.095C159.906 145.96 156.889 143.128 153.691 143.369Z" fill="#00C2CB"/>
<path d="M171.551 148.612C165.336 149.034 161.716 156.93 167.026 161.149C169.258 162.897 172.637 163.138 175.05 161.691C177.464 160.245 178.851 157.171 178.369 154.338C177.765 151.204 174.809 148.371 171.551 148.612Z" fill="#00C2CB"/>
<path d="M182.954 164.524C177.946 164.162 174.688 170.069 177.222 174.287C179.093 177.422 183.859 178.446 186.876 176.337C192.306 172.479 189.048 164.946 182.954 164.524Z" fill="#00C2CB"/>
<path d="M136.013 150.782C131.005 150.42 127.747 156.327 130.281 160.546C132.152 163.68 136.918 164.704 139.935 162.595C145.365 158.738 142.107 151.204 136.013 150.782Z" fill="#00C2CB"/>
<path d="M396.603 202.012C397.025 199.059 398.051 196.166 399.62 193.755C407.946 180.435 425.443 180.736 434.494 192.791C436.847 195.864 438.596 199.722 439.019 203.941C439.441 208.099 438.355 212.62 435.761 215.392C433.166 218.164 429.063 218.827 426.167 216.477C424.961 215.512 423.814 214.126 423.09 212.8C422.306 211.354 421.521 209.847 419.953 209.184C419.289 208.883 418.505 208.822 417.781 208.822C415.428 208.943 413.497 210.088 412.411 212.137C411.506 213.825 410.601 215.754 408.73 216.597C407.463 217.14 406.075 217.14 404.748 216.778C397.809 215.03 395.698 208.461 396.603 202.012Z" fill="#00C2CB"/>
<path d="M406.256 167.899C400.404 170.069 399.197 178.627 405.412 181.159C408.067 182.243 411.325 181.52 413.255 179.411C415.186 177.301 415.669 173.986 414.341 171.455C412.954 168.683 409.334 166.754 406.256 167.899Z" fill="#00C2CB"/>
<path d="M391.414 179.953C386.527 181.038 385.079 187.608 388.699 190.922C391.414 193.454 396.241 193.032 398.534 190.139C402.636 185.016 397.387 178.688 391.414 179.953Z" fill="#00C2CB"/>
<path d="M177.765 726.666C177.826 723.713 178.429 720.7 179.636 718.048C186.152 703.764 203.529 701.775 214.087 712.503C216.803 715.275 219.095 718.831 220.061 722.93C221.026 727.028 220.543 731.609 218.311 734.743C216.078 737.816 212.096 739.022 208.959 737.093C207.631 736.31 206.304 735.044 205.459 733.839C204.494 732.513 203.529 731.126 201.839 730.644C201.115 730.463 200.331 730.463 199.607 730.584C197.254 731.006 195.504 732.392 194.78 734.622C194.116 736.43 193.453 738.479 191.703 739.504C190.496 740.227 189.108 740.348 187.781 740.227C180.661 739.383 177.705 733.176 177.765 726.666Z" fill="#00C2CB"/>
<path d="M182.894 691.589C177.343 694.482 177.283 703.161 183.799 704.848C186.574 705.571 189.712 704.426 191.341 702.076C192.97 699.725 193.03 696.41 191.401 693.999C189.651 691.468 185.73 690.082 182.894 691.589Z" fill="#00C2CB"/>
<path d="M201.357 689.118C195.806 692.011 195.745 700.69 202.262 702.377C205.037 703.101 208.174 701.956 209.804 699.605C211.433 697.254 211.493 693.94 209.864 691.529C208.114 688.997 204.192 687.611 201.357 689.118Z" fill="#00C2CB"/>
<path d="M218.251 699.062C213.544 700.75 212.941 707.44 216.984 710.333C220 712.442 224.706 711.478 226.577 708.284C229.956 702.558 223.922 697.013 218.251 699.062Z" fill="#00C2CB"/>
<path d="M169.741 705.451C165.034 707.138 164.431 713.828 168.474 716.721C171.49 718.831 176.197 717.867 178.067 714.672C181.506 709.007 175.473 703.402 169.741 705.451Z" fill="#00C2CB"/>
<path d="M215.777 882.165C215.837 879.212 216.441 876.198 217.647 873.546C224.164 859.262 241.54 857.273 252.099 868.001C254.814 870.774 257.107 874.33 258.072 878.428C259.038 882.526 258.555 887.107 256.322 890.241C254.09 893.315 250.108 894.52 246.97 892.592C245.643 891.808 244.316 890.542 243.471 889.337C242.506 888.011 241.54 886.625 239.851 886.143C239.127 885.962 238.342 885.962 237.618 886.082C235.265 886.504 233.516 887.891 232.792 890.121C232.128 891.929 231.464 893.978 229.714 895.002C228.508 895.726 227.12 895.846 225.793 895.726C218.673 894.882 215.717 888.674 215.777 882.165Z" fill="#00C2CB"/>
<path d="M220.905 847.087C215.354 849.98 215.294 858.659 221.81 860.347C224.586 861.07 227.723 859.925 229.352 857.574C230.981 855.224 231.042 851.909 229.413 849.498C227.663 846.967 223.741 845.58 220.905 847.087Z" fill="#00C2CB"/>
<path d="M239.368 844.616C233.817 847.509 233.757 856.188 240.273 857.875C243.049 858.599 246.186 857.454 247.815 855.103C249.444 852.753 249.505 849.438 247.875 847.027C246.126 844.495 242.204 843.109 239.368 844.616Z" fill="#00C2CB"/>
<path d="M256.262 854.561C251.556 856.249 250.953 862.939 254.995 865.832C258.012 867.941 262.718 866.977 264.588 863.782C267.967 858.057 261.934 852.512 256.262 854.561Z" fill="#00C2CB"/>
<path d="M207.752 860.949C203.046 862.637 202.443 869.327 206.485 872.22C209.502 874.329 214.208 873.365 216.079 870.171C219.518 864.505 213.484 858.9 207.752 860.949Z" fill="#00C2CB"/>
<path d="M24.211 853.475C25.6591 850.884 27.7708 848.594 30.0636 846.906C42.734 837.624 58.8437 844.375 62.8258 858.96C63.8516 862.697 64.0929 866.916 62.8862 870.954C61.7398 874.992 59.0247 878.789 55.5856 880.356C52.1464 881.983 48.0436 881.079 46.2939 877.825C45.5698 876.499 45.0268 874.751 44.8458 873.244C44.6648 871.617 44.4838 869.929 43.2771 868.724C42.7341 868.181 42.0704 867.82 41.3463 867.579C39.1139 866.795 36.8815 867.157 35.1318 868.724C33.6837 869.989 32.115 871.436 30.0636 871.496C28.6758 871.557 27.4088 870.954 26.2624 870.17C20.5305 866.012 20.9529 859.141 24.211 853.475Z" fill="#00C2CB"/>
<path d="M45.8715 825.389C39.5966 825.209 35.3127 832.742 40.1396 837.383C42.191 839.372 45.5095 839.915 48.1039 838.649C50.6983 837.444 52.3274 834.49 52.086 831.658C51.7844 828.584 49.0693 825.45 45.8715 825.389Z" fill="#00C2CB"/>
<path d="M63.1276 832.26C56.8526 832.079 52.5688 839.613 57.3957 844.254C59.4471 846.243 62.7655 846.785 65.36 845.52C67.9544 844.314 69.5835 841.361 69.3421 838.528C69.1008 835.454 66.3857 832.381 63.1276 832.26Z" fill="#00C2CB"/>
<path d="M73.0226 849.196C68.075 848.413 64.2739 853.898 66.3856 858.418C67.9544 861.733 72.6002 863.179 75.798 861.371C81.5299 857.996 78.9958 850.161 73.0226 849.196Z" fill="#00C2CB"/>
<path d="M27.5898 831.055C22.6423 830.271 18.8411 835.756 20.9529 840.276C22.5216 843.591 27.1674 845.038 30.3652 843.229C36.0971 839.915 33.563 832.079 27.5898 831.055Z" fill="#00C2CB"/>
<path d="M395.155 695.928C396.181 693.156 397.81 690.504 399.801 688.455C410.661 677.124 427.736 681.042 434.132 694.663C435.761 698.158 436.726 702.317 436.304 706.476C435.821 710.634 433.83 714.853 430.753 717.023C427.615 719.193 423.452 719.012 421.159 716.119C420.194 714.914 419.349 713.347 418.927 711.84C418.444 710.273 418.022 708.646 416.574 707.681C415.971 707.259 415.247 707.018 414.523 706.898C412.169 706.536 410.058 707.259 408.61 709.067C407.403 710.574 406.076 712.262 404.085 712.684C402.697 712.985 401.369 712.623 400.102 712.021C393.646 708.887 392.922 702.016 395.155 695.928Z" fill="#00C2CB"/>
<path d="M411.626 664.528C405.472 665.432 402.455 673.568 408.067 677.365C410.42 678.932 413.799 678.932 416.152 677.245C418.505 675.557 419.591 672.423 418.867 669.651C418.022 666.637 414.824 664.046 411.626 664.528Z" fill="#00C2CB"/>
<path d="M394.612 673.267C389.604 673.327 386.828 679.415 389.664 683.453C391.776 686.466 396.603 687.069 399.439 684.718C404.507 680.499 400.706 673.207 394.612 673.267Z" fill="#00C2CB"/>
<path d="M218.613 407.414L221.569 408.137L224.465 410.066L226.758 412.959L227.241 416.213L226.939 419.227L225.672 421.698L223.439 423.807L220.302 425.194L216.139 425.133L211.493 423.807L207.45 423.144L203.891 423.386L199.848 424.35L195.685 425.917L169.741 437.549L164.974 440.08L160.871 443.275L157.493 447.433L154.717 451.893L152.485 454.967L149.166 457.86L144.52 459.126L140.599 459.005L136.677 456.474L135.168 451.893L134.806 447.795L135.651 444.721L136.677 442.853L133.539 442.431L130.824 440.984L128.652 438.333L127.264 434.174L128.169 429.473L132.514 425.495H138.306L143.314 426.761L148.321 427.363L152.907 426.7L158.579 424.169L187.6 411.331L193.151 408.438L196.711 404.581L199.788 399.398L202.563 394.817L205.821 391.804L210.588 391.081L214.389 392.407L217.708 394.938L219.638 397.771L220.302 401.748L219.518 405.425L218.613 407.414Z" fill="#00C2CB"/>
<path d="M218.613 236.849L221.569 237.572L224.465 239.501L226.758 242.394L227.241 245.648L226.939 248.662L225.672 251.133L223.44 253.242L220.302 254.629L216.139 254.568L211.493 253.242L207.451 252.58L203.891 252.821L199.848 253.785L195.685 255.352L169.741 266.984L164.974 269.516L160.871 272.71L157.493 276.869L154.717 281.329L152.485 284.402L149.166 287.295L144.52 288.561L140.599 288.44L136.677 285.909L135.168 281.329L134.806 277.23L135.651 274.156L136.677 272.288L133.539 271.866L130.824 270.42L128.652 267.768L127.264 263.609L128.17 258.908L132.514 254.93H138.306L143.314 256.196L148.322 256.798L152.907 256.135L158.579 253.604L187.6 240.767L193.151 237.874L196.711 234.016L199.788 228.833L202.563 224.252L205.822 221.239L210.588 220.516L214.389 221.842L217.708 224.373L219.638 227.206L220.302 231.183L219.518 234.86L218.613 236.849Z" fill="#00C2CB"/>
<path d="M218.613 -33.5058L221.569 -32.7826L224.465 -30.8539L226.758 -27.9609L227.241 -24.7063L226.939 -21.6928L225.672 -19.2217L223.44 -17.1123L220.302 -15.726L216.139 -15.7863L211.493 -17.1123L207.451 -17.7752L203.891 -17.5341L199.848 -16.5698L195.685 -15.0028L169.741 -3.37058L164.974 -0.839227L160.871 2.35511L157.493 6.51377L154.717 10.9738L152.485 14.0476L149.166 16.9406L144.52 18.2062L140.599 18.0857L136.677 15.5543L135.168 10.9738L134.806 6.87539L135.651 3.8016L136.677 1.93321L133.539 1.51132L130.824 0.0648301L128.652 -2.58708L127.264 -6.74573L128.17 -11.4468L132.514 -15.4247H138.306L143.314 -14.159L148.322 -13.5563L152.907 -14.2193L158.579 -16.7506L187.6 -29.5882L193.151 -32.4812L196.711 -36.3385L199.788 -41.5218L202.563 -46.1023L205.822 -49.1159L210.588 -49.8391L214.389 -48.5132L217.708 -45.9818L219.638 -43.1491L220.302 -39.1712L219.518 -35.4947L218.613 -33.5058Z" fill="#00C2CB"/>
<path d="M43.5788 293.986L44.0012 297L43.2771 300.435L41.4067 303.63L38.6313 305.317L35.6748 306.101L32.9597 305.86L30.124 304.594L27.6502 302.183L26.1418 298.326L25.6591 293.504L24.7541 289.526L23.2457 286.332L20.8323 282.897L17.8155 279.642L-2.69865 259.934L-6.80148 256.498L-11.3267 253.846L-16.4552 252.279L-21.6441 251.375L-25.2642 250.471L-29.186 248.482L-32.1425 244.625L-33.4698 240.948L-32.5648 236.368L-28.8843 233.294L-25.2039 231.426L-22.0664 231.064L-19.9547 231.305L-20.739 228.231L-20.377 225.158L-18.7479 222.144L-15.3691 219.372L-10.663 218.407L-5.35342 220.939L-3.18134 226.303L-2.51764 231.426L-1.2506 236.308L1.1025 240.285L5.56733 244.625L28.3139 266.744L33.0804 270.782L38.0279 272.59L44.0012 273.555L49.3107 274.459L53.2928 276.327L55.7063 280.486L55.9476 284.464L54.8012 288.502L52.9308 291.395L49.4314 293.444L45.7509 294.107L43.5788 293.986Z" fill="#00C2CB"/>
<path d="M43.5788 23.6312L44.0012 26.6447L43.2771 30.0801L41.4067 33.2744L38.6313 34.962L35.6748 35.7455L32.9597 35.5044L30.124 34.2388L27.6502 31.8279L26.1418 27.9706L25.6591 23.149L24.7541 19.1711L23.2457 15.9768L20.8323 12.5414L17.8155 9.28679L-2.69865 -10.4217L-6.80148 -13.8571L-11.3267 -16.509L-16.4552 -18.076L-21.6441 -18.9801L-25.2642 -19.8841L-29.186 -21.873L-32.1425 -25.7303L-33.4698 -29.4069L-32.5648 -33.9874L-28.8843 -37.0612L-25.2039 -38.9296L-22.0664 -39.2912L-19.9547 -39.0501L-20.739 -42.1239L-20.377 -45.1977L-18.7479 -48.2112L-15.3691 -50.9837L-10.663 -51.948L-5.35342 -49.4166L-3.18134 -44.0526L-2.51764 -38.9296L-1.2506 -34.0477L1.1025 -30.0698L5.56733 -25.7303L28.3139 -3.61109L33.0804 0.427027L38.0279 2.23514L44.0012 3.19947L49.3107 4.10353L53.2928 5.97192L55.7063 10.1306L55.9476 14.1084L54.8012 18.1465L52.9308 21.0395L49.4314 23.0887L45.7509 23.7517L43.5788 23.6312Z" fill="#00C2CB"/>
<path d="M41.1653 545.314L41.5876 548.327L40.8636 551.762L38.9932 554.957L36.2177 556.644L33.2613 557.428L30.5462 557.187L27.7104 555.921L25.2366 553.51L23.7283 549.653L23.2456 544.831L22.3405 540.854L20.8321 537.659L18.4187 534.224L15.4019 530.969L-5.1122 511.261L-9.21502 507.825L-13.7402 505.173L-18.8687 503.606L-24.0576 502.702L-27.6777 501.798L-31.5996 499.809L-34.556 495.952L-35.8834 492.276L-34.9784 487.695L-31.2979 484.621L-27.6174 482.753L-24.48 482.391L-22.3682 482.632L-23.1526 479.558L-22.7906 476.485L-21.1615 473.471L-17.7827 470.699L-13.0765 469.734L-7.76696 472.266L-5.59488 477.63L-4.93119 482.753L-3.66414 487.635L-1.31105 491.613L3.15379 495.952L25.9003 518.071L30.6669 522.109L35.6144 523.918L41.5876 524.882L46.8972 525.786L50.8793 527.654L53.2927 531.813L53.5341 535.791L52.3877 539.829L50.5173 542.722L47.0178 544.771L43.3373 545.434L41.1653 545.314Z" fill="#00C2CB"/>
<path d="M137.944 644.337L134.987 643.433L132.212 641.263L130.1 638.31L129.738 635.055L130.281 632.042L131.669 629.691L134.022 627.642L137.22 626.437L141.383 626.738L145.968 628.305L149.89 629.209L153.45 629.149L157.613 628.425L161.837 627.099L188.384 616.974L193.272 614.684L197.555 611.731L201.176 607.753L204.192 603.413L206.606 600.52L210.045 597.868L214.751 596.844L218.673 597.145L222.474 599.918L223.681 604.558L223.801 608.657L222.836 611.67L221.69 613.478L224.767 614.081L227.482 615.708L229.473 618.481L230.619 622.7L229.413 627.341L224.887 631.077L219.095 630.776L214.148 629.209L209.2 628.305L204.615 628.727L198.762 630.897L169.077 642.107L163.345 644.698L159.604 648.375L156.225 653.377L153.209 657.777L149.77 660.61L145.003 661.032L141.323 659.525L138.125 656.813L136.315 653.86L135.892 649.821L136.858 646.266L137.944 644.337Z" fill="#00C2CB"/>
<path d="M43.1565 788.867L43.8805 791.82L43.5185 795.316L42.0704 798.691L39.4156 800.62L36.6402 801.765L33.8648 801.825L30.9083 800.861L28.2535 798.751L26.2625 795.014L25.2971 790.313L23.9697 786.456L22.0993 783.443L19.3239 780.309L16.0054 777.355L-6.43948 759.937L-10.9043 756.924L-15.6708 754.814L-20.9804 753.789L-26.2296 753.428L-29.9101 752.885L-34.0129 751.318L-37.3313 747.823L-39.0811 744.327L-38.6587 739.686L-35.3403 736.19L-31.9011 733.961L-28.7637 733.237L-26.6519 733.298L-27.738 730.344V727.21L-26.4709 724.076L-23.3938 720.942L-18.8083 719.496L-13.2574 721.424L-10.5423 726.547L-9.33559 731.55L-7.52552 736.251L-4.75008 739.988L0.137109 743.845L25.1161 763.372L30.2446 766.928L35.3732 768.194L41.4067 768.556L46.7766 768.857L50.9398 770.304L53.8359 774.161L54.4392 778.078L53.7152 782.237L52.1465 785.311L48.8883 787.722L45.3285 788.746L43.1565 788.867Z" fill="#00C2CB"/>
<path d="M337.655 618.06L336.569 620.893L334.276 623.545L331.139 625.473L327.88 625.594L324.924 624.931L322.631 623.424L320.761 620.953L319.735 617.698L320.278 613.54L322.088 609.08L323.235 605.162L323.416 601.606L322.933 597.447L321.907 593.168L313.279 566.047L311.288 561.044L308.633 556.644L304.832 552.787L300.729 549.472L297.954 546.941L295.48 543.325L294.756 538.563L295.299 534.706L298.256 531.09L303.022 530.125L307.125 530.246L310.081 531.391L311.831 532.657L312.615 529.583L314.365 527.052L317.261 525.183L321.545 524.339L326.131 525.786L329.57 530.487L328.906 536.273L327.036 541.095L325.829 545.976L326.01 550.617L327.82 556.584L337.293 586.84L339.525 592.686L342.964 596.604L347.791 600.34L352.015 603.595L354.609 607.151L354.79 611.973L353.04 615.529L350.144 618.542L347.127 620.23L343.025 620.35L339.465 619.145L337.655 618.06Z" fill="#00C2CB"/>
<path d="M324.984 833.226L323.898 836.059L321.606 838.711L318.468 840.639L315.21 840.76L312.254 840.097L309.961 838.59L308.09 836.119L307.065 832.864L307.608 828.706L309.418 824.246L310.564 820.328L310.745 816.772L310.262 812.613L309.237 808.334L300.609 781.213L298.618 776.21L295.963 771.81L292.162 767.953L288.059 764.638L285.283 762.107L282.81 758.491L282.086 753.729L282.629 749.872L285.585 746.256L290.352 745.291L294.455 745.412L297.411 746.557L299.161 747.823L299.945 744.749L301.695 742.218L304.591 740.349L308.875 739.505L313.46 740.952L316.899 745.653L316.236 751.439L314.365 756.261L313.159 761.142L313.34 765.783L315.15 771.75L324.622 802.006L326.855 807.852L330.294 811.77L335.121 815.506L339.344 818.761L341.939 822.317L342.12 827.139L340.37 830.695L337.474 833.708L334.457 835.396L330.354 835.516L326.794 834.311L324.984 833.226Z" fill="#00C2CB"/>
<path d="M335.483 368.298L334.397 371.131L332.104 373.843L329.027 375.772L325.708 375.893L322.752 375.23L320.459 373.663L318.589 371.191L317.563 367.997L318.106 363.838L319.916 359.378L321.063 355.461L321.183 351.905L320.701 347.746L319.675 343.407L310.987 316.345L309.056 311.403L306.341 306.943L302.54 303.086L298.437 299.831L295.661 297.3L293.188 293.684L292.403 288.922L293.006 285.005L295.963 281.449L300.669 280.424L304.772 280.545L307.728 281.75L309.478 282.956L310.263 279.882L312.012 277.35L314.908 275.482L319.192 274.638L323.778 276.024L327.217 280.786L326.613 286.572L324.743 291.393L323.536 296.275L323.717 300.856L325.527 306.823L335.06 337.078L337.293 342.925L340.792 346.842L345.559 350.579L349.782 353.834L352.437 357.39L352.618 362.211L350.868 365.767L347.972 368.781L344.956 370.468L340.853 370.589L337.293 369.444L335.483 368.298Z" fill="#00C2CB"/>
<path d="M335.483 97.9438L334.397 100.776L332.104 103.489L329.027 105.417L325.708 105.538L322.752 104.875L320.459 103.308L318.589 100.837L317.563 97.6424L318.106 93.4837L319.916 89.0237L321.063 85.1061L321.183 81.5502L320.701 77.3915L319.675 73.052L310.987 45.9906L309.056 41.0484L306.341 36.5884L302.54 32.7311L298.437 29.4765L295.661 26.9451L293.188 23.3289L292.403 18.5675L293.006 14.65L295.963 11.094L300.669 10.0694L304.772 10.19L307.728 11.3954L309.478 12.6008L310.263 9.52698L312.012 6.99562L314.908 5.12723L319.192 4.28345L323.778 5.66967L327.217 10.431L326.613 16.217L324.743 21.0386L323.536 25.9205L323.717 30.5011L325.527 36.4679L335.06 66.7236L337.293 72.5699L340.792 76.4875L345.559 80.2242L349.782 83.4788L352.437 87.0348L352.618 91.8564L350.868 95.4124L347.972 98.4259L344.956 100.113L340.853 100.234L337.293 99.0889L335.483 97.9438Z" fill="#00C2CB"/>
<path d="M335.905 368.72L334.819 371.613L332.526 374.265L329.389 376.194L326.131 376.314L323.174 375.651L320.881 374.145L319.011 371.674L317.985 368.419L318.468 364.26L320.338 359.8L321.425 355.943L321.606 352.387L321.123 348.168L320.037 343.889L311.409 316.827L309.418 311.825L306.703 307.425L302.901 303.568L298.799 300.313L296.023 297.782L293.549 294.166L292.765 289.404L293.368 285.487L296.325 281.871L301.031 280.906L305.134 281.027L308.09 282.172L309.84 283.438L310.624 280.364L312.374 277.833L315.27 275.964L319.554 275.06L324.14 276.507L327.579 281.268L326.975 286.994L325.105 291.815L323.898 296.697L324.079 301.338L325.95 307.305L335.422 337.561L337.715 343.346L341.154 347.324L345.981 351.001L350.205 354.255L352.799 357.811L352.98 362.633L351.291 366.249L348.395 369.263L345.378 370.89L341.275 371.071L337.715 369.865L335.905 368.72Z" fill="#00C2CB"/>
<path d="M335.905 98.3664L334.819 101.259L332.526 103.911L329.389 105.84L326.131 105.96L323.174 105.297L320.881 103.791L319.011 101.32L317.985 98.065L318.468 93.9063L320.338 89.4463L321.425 85.589L321.606 82.0331L321.123 77.8141L320.037 73.5349L311.409 46.4735L309.418 41.471L306.703 37.0713L302.901 33.214L298.799 29.9594L296.023 27.428L293.549 23.8118L292.765 19.0504L293.368 15.1328L296.325 11.5166L301.031 10.5523L305.134 10.6728L308.09 11.818L309.84 13.0836L310.624 10.0099L312.374 7.4785L315.27 5.61011L319.554 4.70605L324.14 6.15254L327.579 10.9139L326.975 16.6396L325.105 21.4612L323.898 26.3431L324.079 30.984L325.95 36.9508L335.422 67.2065L337.715 72.9925L341.154 76.9703L345.981 80.6468L350.205 83.9014L352.799 87.4574L352.98 92.279L351.291 95.8953L348.395 98.9088L345.378 100.536L341.275 100.717L337.715 99.5115L335.905 98.3664Z" fill="#00C2CB"/>
<path d="M269.294 806.344C263.442 808.514 262.235 817.012 268.45 819.543C271.105 820.628 274.363 819.905 276.293 817.796C278.224 815.686 278.646 812.371 277.379 809.84C275.992 807.128 272.311 805.259 269.294 806.344Z" fill="#00C2CB"/>
<path d="M59.266 431.763C49.4916 435.379 47.4402 449.663 57.8783 453.882C62.2828 455.69 67.7733 454.425 70.9711 450.929C74.1689 447.433 74.9533 441.888 72.7812 437.67C70.4281 433.029 64.3342 429.895 59.266 431.763Z" fill="#00C2CB"/>
<path d="M181.747 537.236C171.973 540.852 169.922 555.137 180.36 559.355C184.764 561.164 190.255 559.898 193.453 556.402C196.65 552.907 197.435 547.362 195.263 543.143C192.91 538.502 186.816 535.368 181.747 537.236Z" fill="#00C2CB"/>
<path d="M52.086 479.076C46.2334 481.245 45.0267 489.744 51.2413 492.275C53.896 493.36 57.1542 492.637 59.0849 490.527C61.0156 488.418 61.438 485.103 60.171 482.571C58.7832 479.859 55.1027 477.991 52.086 479.076Z" fill="#00C2CB"/>
<path d="M139.573 564.66C133.72 566.829 132.514 575.328 138.728 577.859C141.383 578.944 144.641 578.22 146.572 576.111C148.502 574.002 148.925 570.687 147.658 568.155C146.27 565.443 142.59 563.575 139.573 564.66Z" fill="#00C2CB"/>
<path d="M287.395 593.589C281.543 595.759 280.336 604.257 286.551 606.789C289.205 607.873 292.463 607.15 294.394 605.041C296.325 602.931 296.747 599.616 295.48 597.085C294.092 594.373 290.412 592.504 287.395 593.589Z" fill="#00C2CB"/>
<path d="M119.662 511.803C115.559 513.31 114.714 519.276 119.059 521.084C120.929 521.808 123.222 521.326 124.549 519.879C125.877 518.433 126.239 516.082 125.334 514.334C124.308 512.345 121.774 511.019 119.662 511.803Z" fill="#00C2CB"/>
<path d="M329.57 418.504C319.795 422.12 317.744 436.404 328.182 440.623C332.587 442.431 338.077 441.165 341.275 437.67C344.473 434.174 345.257 428.629 343.085 424.41C340.732 419.769 334.638 416.635 329.57 418.504Z" fill="#00C2CB"/>
<path d="M306.099 450.145C300.247 452.315 299.04 460.813 305.255 463.345C307.909 464.43 311.167 463.706 313.098 461.597C315.029 459.487 315.451 456.173 314.184 453.641C312.797 450.929 309.116 449.061 306.099 450.145Z" fill="#00C2CB"/>
<path d="M275.328 427.424C271.225 428.931 270.38 434.897 274.725 436.706C276.595 437.429 278.888 436.947 280.215 435.5C281.543 434.054 281.905 431.703 281 429.955C279.974 427.966 277.44 426.64 275.328 427.424Z" fill="#00C2CB"/>
<path d="M349.541 551.581C345.438 553.088 344.593 559.055 348.938 560.863C350.808 561.586 353.101 561.104 354.428 559.657C355.756 558.211 356.118 555.86 355.213 554.112C354.187 552.124 351.653 550.798 349.541 551.581Z" fill="#00C2CB"/>
<path d="M379.709 495.529C375.606 497.036 374.761 503.003 379.105 504.811C380.976 505.534 383.269 505.052 384.596 503.606C385.923 502.159 386.285 499.809 385.38 498.061C384.355 496.072 381.821 494.746 379.709 495.529Z" fill="#00C2CB"/>
<path d="M59.266 181.641C49.4916 185.257 47.4402 199.541 57.8783 203.76C62.2828 205.568 67.7733 204.302 70.9711 200.807C74.1689 197.311 74.9533 191.766 72.7812 187.547C70.4281 182.906 64.3342 179.772 59.266 181.641Z" fill="#00C2CB"/>
<path d="M59.266 75.8671C49.4916 79.4833 47.4402 93.7674 57.8783 97.9863C62.2828 99.7944 67.7733 98.5288 70.9711 95.0331C74.1689 91.5374 74.9533 85.9925 72.7812 81.7736C70.4281 77.1328 64.3342 73.9987 59.266 75.8671Z" fill="#00C2CB"/>
<path d="M167.87 338.344C158.096 341.96 156.044 356.244 166.483 360.463C170.887 362.272 176.378 361.006 179.575 357.51C182.773 354.014 183.557 348.47 181.385 344.251C179.032 339.61 172.938 336.476 167.87 338.344Z" fill="#00C2CB"/>
<path d="M52.086 228.953C46.2334 231.123 45.0267 239.621 51.2413 242.152C53.896 243.237 57.1542 242.514 59.0849 240.404C61.0156 238.295 61.438 234.98 60.171 232.449C58.7832 229.737 55.1027 227.868 52.086 228.953Z" fill="#00C2CB"/>
<path d="M52.086 123.18C46.2334 125.349 45.0267 133.848 51.2413 136.379C53.896 137.464 57.1542 136.741 59.0849 134.631C61.0156 132.522 61.438 129.207 60.171 126.675C58.7832 123.963 55.1027 122.095 52.086 123.18Z" fill="#00C2CB"/>
<path d="M125.696 365.767C119.843 367.937 118.636 376.435 124.851 378.966C127.506 380.051 130.764 379.328 132.695 377.218C134.625 375.109 135.048 371.794 133.781 369.263C132.393 366.551 128.712 364.682 125.696 365.767Z" fill="#00C2CB"/>
<path d="M287.395 343.467C281.543 345.637 280.336 354.135 286.551 356.666C289.205 357.751 292.463 357.028 294.394 354.918C296.325 352.809 296.747 349.494 295.48 346.962C294.092 344.25 290.412 342.382 287.395 343.467Z" fill="#00C2CB"/>
<path d="M96.131 304.472C92.0282 305.978 91.1835 311.945 95.5277 313.753C97.3981 314.477 99.6908 313.994 101.018 312.548C102.346 311.101 102.708 308.751 101.803 307.003C100.777 305.014 98.2428 303.688 96.131 304.472Z" fill="#00C2CB"/>
<path d="M96.131 34.1172C92.0282 35.624 91.1835 41.5908 95.5277 43.3989C97.3981 44.1221 99.6908 43.64 101.018 42.1935C102.346 40.747 102.708 38.3964 101.803 36.6486C100.777 34.6597 98.2428 33.3337 96.131 34.1172Z" fill="#00C2CB"/>
<path d="M226.456 150.782C222.353 152.289 221.509 158.256 225.853 160.064C227.723 160.787 230.016 160.305 231.343 158.859C232.671 157.412 233.033 155.061 232.128 153.314C231.102 151.325 228.568 149.999 226.456 150.782Z" fill="#00C2CB"/>
<path d="M329.57 168.381C319.795 171.997 317.744 186.282 328.182 190.5C332.587 192.309 338.077 191.043 341.275 187.547C344.473 184.052 345.257 178.507 343.085 174.288C340.732 169.647 334.638 166.513 329.57 168.381Z" fill="#00C2CB"/>
<path d="M306.099 200.023C300.247 202.193 299.04 210.691 305.255 213.223C307.909 214.308 311.167 213.584 313.098 211.475C315.029 209.365 315.451 206.05 314.184 203.519C312.797 200.807 309.116 198.939 306.099 200.023Z" fill="#00C2CB"/>
<path d="M275.328 177.301C271.225 178.808 270.38 184.775 274.725 186.583C276.595 187.306 278.888 186.824 280.215 185.378C281.543 183.931 281.905 181.581 281 179.833C279.974 177.844 277.44 176.518 275.328 177.301Z" fill="#00C2CB"/>
<path d="M349.541 301.459C345.438 302.965 344.593 308.932 348.938 310.74C350.808 311.463 353.101 310.981 354.428 309.535C355.756 308.088 356.118 305.738 355.213 303.99C354.187 302.001 351.653 300.675 349.541 301.459Z" fill="#00C2CB"/>
<path d="M349.541 31.1038C345.438 32.6106 344.593 38.5773 348.938 40.3855C350.808 41.1087 353.101 40.6265 354.428 39.18C355.756 37.7336 356.118 35.383 355.213 33.6352C354.187 31.6462 351.653 30.3203 349.541 31.1038Z" fill="#00C2CB"/>
<path d="M231.846 89.1127C222.072 92.7289 220.02 107.013 230.459 111.232C234.863 113.04 240.354 111.774 243.551 108.279C246.749 104.783 247.533 99.2381 245.361 95.0192C243.008 90.3784 236.914 87.2443 231.846 89.1127Z" fill="#00C2CB"/>
<path d="M146.23 53.2514C140.377 55.4212 139.171 63.9193 145.385 66.4507C148.04 67.5355 151.298 66.8123 153.229 64.7028C155.16 62.5934 155.582 59.2785 154.315 56.7471C152.927 54.035 149.247 52.1666 146.23 53.2514Z" fill="#00C2CB"/>
<path d="M189.672 116.536C183.819 118.705 182.612 127.203 188.827 129.735C191.482 130.82 194.74 130.096 196.671 127.987C198.601 125.878 199.024 122.563 197.757 120.031C196.369 117.319 192.688 115.451 189.672 116.536Z" fill="#00C2CB"/>
<path d="M419.37 129.686C409.595 126.07 407.544 111.786 417.982 107.567C422.387 105.759 427.877 107.024 431.075 110.52C434.273 114.016 435.057 119.561 432.885 123.78C430.532 128.42 424.438 131.555 419.37 129.686Z" fill="#00C2CB"/>
<path d="M377.195 102.263C371.342 100.093 370.136 91.5953 376.35 89.064C379.005 87.9791 382.263 88.7024 384.194 90.8118C386.125 92.9213 386.547 96.2362 385.28 98.7675C383.892 101.48 380.212 103.348 377.195 102.263Z" fill="#00C2CB"/>
<path d="M146.23 106.47C142.127 107.977 141.282 113.944 145.627 115.752C147.497 116.475 149.79 115.993 151.117 114.547C152.445 113.1 152.807 110.749 151.901 109.002C150.876 107.013 148.342 105.687 146.23 106.47Z" fill="#00C2CB"/>
<path d="M379.709 245.407C375.606 246.914 374.761 252.88 379.105 254.688C380.976 255.412 383.269 254.93 384.596 253.483C385.923 252.037 386.285 249.686 385.38 247.938C384.355 245.949 381.821 244.623 379.709 245.407Z" fill="#00C2CB"/>
<path d="M59.266 680.078C49.4916 683.694 47.4402 697.978 57.8783 702.197C62.2828 704.005 67.7733 702.739 70.9711 699.244C74.1689 695.748 74.9533 690.203 72.7812 685.984C70.4281 681.343 64.3342 678.209 59.266 680.078Z" fill="#00C2CB"/>
<path d="M169.68 800.016C159.906 803.632 157.854 817.916 168.292 822.135C172.697 823.943 178.188 822.677 181.385 819.182C184.583 815.686 185.367 810.141 183.195 805.922C180.842 801.281 174.748 798.147 169.68 800.016Z" fill="#00C2CB"/>
<path d="M52.086 727.39C46.2334 729.559 45.0267 738.058 51.2413 740.589C53.896 741.674 57.1542 740.95 59.0849 738.841C61.0156 736.732 61.438 733.417 60.171 730.885C58.7832 728.173 55.1027 726.305 52.086 727.39Z" fill="#00C2CB"/>
<path d="M127.506 827.439C121.653 829.609 120.446 838.107 126.661 840.638C129.316 841.723 132.574 841 134.505 838.89C136.435 836.781 136.858 833.466 135.591 830.935C134.203 828.222 130.522 826.354 127.506 827.439Z" fill="#00C2CB"/>
<path d="M119.662 752.281C115.559 753.788 114.714 759.755 119.059 761.563C120.929 762.286 123.222 761.804 124.549 760.358C125.877 758.911 126.239 756.56 125.334 754.813C124.308 752.824 121.774 751.498 119.662 752.281Z" fill="#00C2CB"/>
<path d="M329.57 666.818C319.795 670.434 317.744 684.718 328.182 688.937C332.587 690.745 338.077 689.479 341.275 685.984C344.473 682.488 345.257 676.943 343.085 672.724C340.732 668.083 334.638 664.949 329.57 666.818Z" fill="#00C2CB"/>
<path d="M306.099 698.46C300.247 700.63 299.04 709.128 305.255 711.659C307.909 712.744 311.167 712.021 313.098 709.911C315.029 707.802 315.451 704.487 314.184 701.956C312.797 699.243 309.116 697.375 306.099 698.46Z" fill="#00C2CB"/>
<path d="M275.328 675.738C271.225 677.245 270.38 683.212 274.725 685.02C276.595 685.743 278.888 685.261 280.215 683.815C281.543 682.368 281.905 680.018 281 678.27C279.974 676.281 277.44 674.955 275.328 675.738Z" fill="#00C2CB"/>
<path d="M349.541 783.02C345.438 784.526 344.593 790.493 348.938 792.301C350.808 793.024 353.101 792.542 354.428 791.096C355.756 789.649 356.118 787.299 355.213 785.551C354.187 783.562 351.653 782.236 349.541 783.02Z" fill="#00C2CB"/>
<path d="M420.073 804.235C410.299 807.851 408.248 822.135 418.686 826.354C423.09 828.162 428.581 826.896 431.778 823.401C434.976 819.905 435.761 814.36 433.589 810.141C431.235 805.5 425.142 802.366 420.073 804.235Z" fill="#00C2CB"/>
<path d="M333.25 869.628C327.398 871.798 326.191 880.296 332.406 882.827C335.06 883.912 338.318 883.189 340.249 881.079C342.18 878.97 342.602 875.655 341.335 873.124C339.948 870.411 336.267 868.543 333.25 869.628Z" fill="#00C2CB"/>
<path d="M379.709 743.844C375.606 745.351 374.761 751.317 379.105 753.125C380.976 753.849 383.269 753.367 384.596 751.92C385.923 750.474 386.285 748.123 385.38 746.375C384.355 744.386 381.821 743.06 379.709 743.844Z" fill="#00C2CB"/>
</g>
</svg>
