<svg width="414" height="324" viewBox="0 0 414 324" fill="none" xmlns="http://www.w3.org/2000/svg">
<path d="M352.637 138.624C420.45 130.492 423.211 60.8393 403.014 0H0V324C57.1091 314.336 166.916 282.147 172.952 231.516C180.335 169.585 255.598 150.261 352.637 138.624Z" fill="#004649"/>
<path d="M352.637 135.153C420.45 127.021 423.211 60.8393 403.014 0H0V324C57.1091 314.336 166.916 278.677 172.952 228.045C180.335 166.114 255.598 146.79 352.637 135.153Z" fill="#00C2CB"/>
<mask id="mask0_235:2076" style="mask-type:alpha" maskUnits="userSpaceOnUse" x="0" y="0" width="414" height="324">
<path d="M352.637 135.153C420.45 127.021 423.211 60.8393 403.014 0H0V324C57.1091 314.336 166.916 278.677 172.952 228.045C180.335 166.114 255.598 146.79 352.637 135.153Z" fill="#F7C59F"/>
</mask>
<g mask="url(#mask0_235:2076)">
<rect width="23.2151" height="323.796" fill="#15A8AF"/>
<rect x="46.4301" width="23.2151" height="323.796" fill="#15A8AF"/>
<rect x="92.8603" width="23.2151" height="323.796" fill="#15A8AF"/>
<rect x="139.29" width="23.2151" height="323.796" fill="#15A8AF"/>
<rect x="185.721" width="23.2151" height="323.796" fill="#15A8AF"/>
<rect x="232.151" width="23.2151" height="323.796" fill="#15A8AF"/>
<rect x="278.581" width="23.2151" height="323.796" fill="#15A8AF"/>
<rect x="325.011" width="23.2151" height="323.796" fill="#15A8AF"/>
<rect x="371.441" width="23.2151" height="323.796" fill="#15A8AF"/>
</g>
</svg>
