<svg width="406" height="203" viewBox="0 0 406 203" fill="none" xmlns="http://www.w3.org/2000/svg">
<g opacity="0.8">
<path d="M80.8395 33.5075C45.7859 38.7784 10.2147 35.2263 0 28.775V161.088C0 161.088 62.1146 196.708 106.998 201.929C166.52 208.854 197.134 180.225 256.499 172.238C314.373 164.453 406 163.941 406 163.941V20.5624C386.957 14.5914 334.8 4.71531 269.317 0.575103C187.146 -4.62022 124.656 26.9189 80.8395 33.5075Z" fill="#004649"/>
<path d="M80.8395 38.1662C45.7859 43.437 10.2147 39.885 0 33.4336V161.088C0 161.088 62.1146 196.708 106.998 201.929C166.52 208.854 197.134 177.372 256.499 169.386C314.373 161.6 406 161.088 406 161.088V20.5622C386.957 14.5913 332.399 2.64941 266.507 2.64941C184.142 2.64941 124.656 31.5775 80.8395 38.1662Z" fill="#00C2CB"/>
<g opacity="0.2">
<mask id="mask0_237:5024" style="mask-type:alpha" maskUnits="userSpaceOnUse" x="0" y="2" width="406" height="201">
<path d="M80.8395 38.1662C45.7859 43.437 10.2147 39.885 0 33.4336V161.088C0 161.088 62.1146 196.708 106.998 201.929C166.52 208.854 197.134 177.372 256.499 169.386C314.373 161.6 406 161.088 406 161.088V20.5622C386.957 14.5913 332.399 2.64941 266.507 2.64941C184.142 2.64941 124.656 31.5775 80.8395 38.1662Z" fill="#FFCCC2"/>
</mask>
<g mask="url(#mask0_237:5024)">
<path d="M89.7214 109.184C89.8544 108.29 90.1775 107.414 90.6715 106.684C93.2939 102.651 98.8046 102.742 101.655 106.392C102.396 107.323 102.947 108.491 103.08 109.768C103.213 111.027 102.871 112.396 102.054 113.236C101.237 114.075 99.9448 114.276 99.0326 113.564C98.6526 113.272 98.2916 112.852 98.0635 112.451C97.8165 112.013 97.5695 111.557 97.0754 111.356C96.8664 111.265 96.6193 111.246 96.3913 111.246C95.6502 111.283 95.0421 111.63 94.7001 112.25C94.415 112.761 94.13 113.345 93.5409 113.601C93.1419 113.765 92.7048 113.765 92.2868 113.655C90.1015 113.126 89.4364 111.137 89.7214 109.184Z" fill="#0D6D72"/>
<path d="M92.7618 98.8552C90.9185 99.5122 90.5385 102.104 92.4958 102.87C93.3319 103.199 94.358 102.98 94.9661 102.341C95.5742 101.702 95.7262 100.698 95.3081 99.9319C94.8711 99.0924 93.7309 98.5084 92.7618 98.8552Z" fill="#0D6D72"/>
<path d="M98.6336 98.8547C96.7904 99.5117 96.4103 102.103 98.3676 102.87C99.2037 103.198 100.23 102.979 100.838 102.34C101.446 101.702 101.598 100.698 101.18 99.9314C100.743 99.0919 99.5837 98.5079 98.6336 98.8547Z" fill="#0D6D72"/>
<path d="M103.498 102.505C101.959 102.833 101.503 104.822 102.643 105.826C103.498 106.593 105.018 106.465 105.741 105.589C107.014 104.038 105.36 102.121 103.498 102.505Z" fill="#0D6D72"/>
<path d="M88.0872 102.505C86.548 102.833 86.0919 104.822 87.2321 105.826C88.0872 106.593 89.6074 106.465 90.3295 105.589C91.6217 104.038 89.9685 102.121 88.0872 102.505Z" fill="#0D6D72"/>
<path d="M24.9609 136.741C25.3409 135.92 25.911 135.154 26.5761 134.57C30.2246 131.358 35.5073 132.872 37.2365 137.125C37.6926 138.22 37.9016 139.479 37.6735 140.738C37.4455 141.997 36.7234 143.22 35.7163 143.822C34.6902 144.425 33.379 144.279 32.7139 143.366C32.4289 142.983 32.2008 142.49 32.1058 142.034C31.9918 141.541 31.8778 141.048 31.4597 140.72C31.2697 140.574 31.0607 140.501 30.8326 140.446C30.1106 140.282 29.4265 140.464 28.9324 140.994C28.5143 141.413 28.0773 141.906 27.4502 141.997C27.0131 142.052 26.5951 141.924 26.215 141.724C24.2198 140.629 24.1248 138.548 24.9609 136.741Z" fill="#0D6D72"/>
<path d="M30.7756 127.58C28.8184 127.744 27.7162 130.135 29.3885 131.376C30.0915 131.905 31.1557 131.96 31.9158 131.504C32.6759 131.048 33.0939 130.117 32.9229 129.277C32.7519 128.347 31.8018 127.507 30.7756 127.58Z" fill="#0D6D72"/>
<path d="M36.4194 129.095C34.4621 129.259 33.36 131.65 35.0322 132.891C35.7353 133.42 36.7994 133.475 37.5595 133.018C38.3196 132.562 38.7377 131.632 38.5667 130.792C38.3956 129.861 37.4455 129.022 36.4194 129.095Z" fill="#0D6D72"/>
<path d="M40.0869 133.876C38.5097 133.785 37.5025 135.592 38.3196 136.869C38.9277 137.818 40.4289 138.11 41.36 137.453C43.0513 136.249 41.9871 133.968 40.0869 133.876Z" fill="#0D6D72"/>
<path d="M25.2459 129.898C23.6687 129.807 22.6616 131.613 23.4787 132.891C24.0868 133.84 25.588 134.132 26.5191 133.475C28.2103 132.27 27.1652 129.989 25.2459 129.898Z" fill="#0D6D72"/>
<path d="M224.639 96.0441C224.772 95.1498 225.095 94.2738 225.589 93.5438C228.212 89.5106 233.722 89.6018 236.573 93.2518C237.314 94.1826 237.865 95.3506 237.998 96.6281C238.131 97.8873 237.789 99.2561 236.972 100.096C236.155 100.935 234.863 101.136 233.95 100.424C233.57 100.132 233.209 99.7123 232.981 99.3108C232.734 98.8728 232.487 98.4166 231.993 98.2158C231.784 98.1246 231.537 98.1063 231.309 98.1063C230.568 98.1428 229.96 98.4896 229.618 99.1101C229.333 99.6211 229.048 100.205 228.459 100.461C228.06 100.625 227.623 100.625 227.205 100.515C225.019 99.9861 224.354 97.9968 224.639 96.0441Z" fill="#0D6D72"/>
<path d="M227.68 85.7146C225.836 86.3716 225.456 88.9631 227.414 89.7296C228.25 90.0581 229.276 89.839 229.884 89.2003C230.492 88.5615 230.644 87.5578 230.226 86.7913C229.789 85.9518 228.649 85.3678 227.68 85.7146Z" fill="#0D6D72"/>
<path d="M233.551 85.7146C231.708 86.3716 231.328 88.9631 233.285 89.7296C234.121 90.0581 235.148 89.839 235.756 89.2003C236.364 88.5615 236.516 87.5578 236.098 86.7913C235.661 85.9518 234.501 85.3678 233.551 85.7146Z" fill="#0D6D72"/>
<path d="M238.416 89.3645C236.877 89.693 236.421 91.6823 237.561 92.686C238.416 93.4525 239.936 93.3248 240.658 92.4488C241.931 90.8975 240.278 88.9813 238.416 89.3645Z" fill="#0D6D72"/>
<path d="M223.005 89.3645C221.466 89.693 221.01 91.6823 222.15 92.686C223.005 93.4525 224.525 93.3248 225.247 92.4488C226.539 90.8975 224.886 88.9813 223.005 89.3645Z" fill="#0D6D72"/>
<path d="M359.527 96.0441C359.66 95.1498 359.983 94.2738 360.477 93.5438C363.099 89.5106 368.61 89.6018 371.46 93.2518C372.201 94.1826 372.753 95.3506 372.886 96.6281C373.019 97.8873 372.677 99.2561 371.859 100.096C371.042 100.935 369.75 101.136 368.838 100.424C368.458 100.132 368.097 99.7123 367.869 99.3108C367.622 98.8728 367.375 98.4166 366.881 98.2158C366.672 98.1246 366.425 98.1063 366.197 98.1063C365.456 98.1428 364.848 98.4896 364.506 99.1101C364.22 99.6211 363.935 100.205 363.346 100.461C362.947 100.625 362.51 100.625 362.092 100.515C359.907 99.9861 359.242 97.9968 359.527 96.0441Z" fill="#0D6D72"/>
<path d="M362.567 85.7146C360.724 86.3716 360.344 88.9631 362.301 89.7296C363.137 90.0581 364.163 89.839 364.772 89.2003C365.38 88.5615 365.532 87.5578 365.114 86.7913C364.677 85.9518 363.536 85.3678 362.567 85.7146Z" fill="#0D6D72"/>
<path d="M368.439 85.7146C366.596 86.3716 366.216 88.9631 368.173 89.7296C369.009 90.0581 370.035 89.839 370.643 89.2003C371.251 88.5615 371.403 87.5578 370.985 86.7913C370.548 85.9518 369.389 85.3678 368.439 85.7146Z" fill="#0D6D72"/>
<path d="M373.304 89.3645C371.764 89.693 371.308 91.6823 372.449 92.686C373.304 93.4525 374.824 93.3248 375.546 92.4488C376.819 90.8975 375.166 88.9813 373.304 89.3645Z" fill="#0D6D72"/>
<path d="M357.893 89.3645C356.353 89.693 355.897 91.6823 357.038 92.686C357.893 93.4525 359.413 93.3248 360.135 92.4488C361.427 90.8975 359.774 88.9813 357.893 89.3645Z" fill="#0D6D72"/>
<path d="M141.56 87.0104C142.035 86.2439 142.7 85.5504 143.422 85.0394C147.451 82.2654 152.506 84.3824 153.703 88.7989C154.007 89.9304 154.064 91.2262 153.684 92.4307C153.304 93.6534 152.449 94.7849 151.347 95.2594C150.263 95.7339 148.971 95.4419 148.42 94.4564C148.192 94.0549 148.021 93.5257 147.983 93.0694C147.926 92.5767 147.888 92.0657 147.508 91.7007C147.337 91.5364 147.128 91.4269 146.919 91.3539C146.216 91.1167 145.513 91.2262 144.962 91.6642C144.506 92.0474 143.993 92.4672 143.365 92.4854C142.928 92.4854 142.529 92.3212 142.187 92.0657C140.344 90.7882 140.515 88.7077 141.56 87.0104Z" fill="#0D6D72"/>
<path d="M148.477 78.5789C146.52 78.5059 145.114 80.7689 146.634 82.1924C147.28 82.7946 148.325 82.9771 149.142 82.6121C149.959 82.2471 150.491 81.3711 150.415 80.5134C150.339 79.5644 149.503 78.6154 148.477 78.5789Z" fill="#0D6D72"/>
<path d="M153.893 80.7141C151.936 80.6411 150.529 82.9041 152.05 84.3276C152.696 84.9298 153.741 85.1123 154.558 84.7473C155.375 84.3823 155.907 83.5064 155.831 82.6486C155.755 81.6996 154.919 80.7506 153.893 80.7141Z" fill="#0D6D72"/>
<path d="M156.933 85.8788C155.375 85.6233 154.159 87.284 154.824 88.6345C155.299 89.6565 156.762 90.0945 157.769 89.547C159.594 88.5798 158.815 86.189 156.933 85.8788Z" fill="#0D6D72"/>
<path d="M142.7 80.2396C141.142 79.9841 139.926 81.6449 140.591 82.9953C141.066 84.0173 142.529 84.4553 143.537 83.9078C145.361 82.9223 144.582 80.5499 142.7 80.2396Z" fill="#0D6D72"/>
<path d="M186.558 140.812C186.33 139.936 186.273 139.005 186.425 138.147C187.242 133.457 192.354 131.522 196.458 133.84C197.504 134.442 198.492 135.3 199.119 136.432C199.746 137.545 199.974 138.932 199.556 140.009C199.138 141.085 198.017 141.761 196.896 141.432C196.439 141.304 195.926 141.049 195.565 140.757C195.166 140.447 194.767 140.118 194.216 140.118C193.988 140.118 193.76 140.173 193.532 140.282C192.848 140.593 192.449 141.14 192.373 141.834C192.316 142.418 192.297 143.056 191.841 143.513C191.537 143.823 191.119 143.969 190.701 144.024C188.477 144.297 187.071 142.728 186.558 140.812Z" fill="#0D6D72"/>
<path d="M321.446 140.812C321.218 139.936 321.161 139.005 321.313 138.147C322.13 133.457 327.242 131.522 331.346 133.84C332.391 134.442 333.379 135.3 334.007 136.432C334.634 137.545 334.862 138.932 334.444 140.009C334.026 141.085 332.904 141.761 331.783 141.432C331.327 141.304 330.814 141.049 330.453 140.757C330.054 140.447 329.655 140.118 329.104 140.118C328.876 140.118 328.648 140.173 328.42 140.282C327.736 140.593 327.337 141.14 327.261 141.834C327.204 142.418 327.185 143.056 326.729 143.513C326.425 143.823 326.006 143.969 325.588 144.024C323.365 144.297 321.959 142.728 321.446 140.812Z" fill="#0D6D72"/>
<path d="M185.247 130.154C183.803 131.431 184.487 133.986 186.615 133.968C187.508 133.968 188.382 133.384 188.686 132.563C188.99 131.76 188.724 130.774 188.04 130.209C187.28 129.588 185.988 129.479 185.247 130.154Z" fill="#0D6D72"/>
<path d="M190.663 127.982C189.219 129.259 189.903 131.814 192.031 131.796C192.924 131.796 193.798 131.212 194.102 130.391C194.406 129.588 194.14 128.602 193.456 128.036C192.715 127.416 191.423 127.325 190.663 127.982Z" fill="#0D6D72"/>
<path d="M320.135 130.154C318.69 131.431 319.375 133.986 321.503 133.968C322.396 133.968 323.27 133.384 323.574 132.563C323.878 131.76 323.612 130.774 322.928 130.209C322.168 129.588 320.876 129.479 320.135 130.154Z" fill="#0D6D72"/>
<path d="M325.55 127.982C324.106 129.259 324.79 131.814 326.919 131.796C327.812 131.796 328.686 131.212 328.99 130.391C329.294 129.588 329.028 128.602 328.344 128.036C327.603 127.416 326.311 127.325 325.55 127.982Z" fill="#0D6D72"/>
<path d="M196.611 129.569C195.318 130.445 195.679 132.434 197.143 132.964C198.226 133.347 199.594 132.69 199.898 131.613C200.468 129.679 198.188 128.529 196.611 129.569Z" fill="#0D6D72"/>
<path d="M331.498 129.569C330.206 130.445 330.567 132.434 332.03 132.964C333.113 133.347 334.482 132.69 334.786 131.613C335.356 129.679 333.075 128.529 331.498 129.569Z" fill="#0D6D72"/>
<path d="M182.378 135.245C181.085 136.121 181.446 138.11 182.91 138.639C183.993 139.023 185.361 138.366 185.665 137.289C186.235 135.354 183.955 134.186 182.378 135.245Z" fill="#0D6D72"/>
<path d="M86.681 50.912C86.51 50.036 86.51 49.1052 86.719 48.2475C87.8022 43.612 93.0468 41.9695 96.9994 44.5062C98.0255 45.1632 98.9376 46.0757 99.5077 47.2437C100.059 48.3935 100.211 49.7987 99.7167 50.839C99.2417 51.8975 98.0825 52.4997 96.9804 52.0982C96.5243 51.934 96.0492 51.6602 95.6882 51.35C95.3081 51.0215 94.9281 50.6565 94.377 50.6382C94.149 50.62 93.902 50.6747 93.6929 50.766C92.9898 51.0397 92.5528 51.5507 92.4578 52.2442C92.3818 52.8282 92.3058 53.4669 91.8307 53.8867C91.5076 54.1787 91.0896 54.3064 90.6525 54.3429C88.3912 54.5072 87.0801 52.8464 86.681 50.912Z" fill="#0D6D72"/>
<path d="M86.0159 40.1993C84.4957 41.4038 85.0278 43.977 87.1371 44.0865C88.0302 44.123 88.9423 43.5938 89.2843 42.809C89.6454 42.0243 89.4364 41.0205 88.7903 40.4183C88.0872 39.743 86.814 39.5605 86.0159 40.1993Z" fill="#0D6D72"/>
<path d="M91.5646 38.3378C90.0444 39.5423 90.5765 42.1156 92.6858 42.2251C93.5789 42.2616 94.491 41.7323 94.8331 40.9475C95.1941 40.1628 94.9851 39.159 94.339 38.5568C93.6359 37.8998 92.3437 37.7173 91.5646 38.3378Z" fill="#0D6D72"/>
<path d="M97.3984 40.2543C96.0492 41.0573 96.2963 43.0648 97.7214 43.6671C98.7856 44.1234 100.173 43.5211 100.553 42.4808C101.256 40.5828 99.0326 39.2871 97.3984 40.2543Z" fill="#0D6D72"/>
<path d="M82.8615 45.1086C81.5123 45.9117 81.7594 47.9192 83.1845 48.5214C84.2487 48.9777 85.6359 48.3754 86.0159 47.3352C86.7 45.4371 84.4957 44.1596 82.8615 45.1086Z" fill="#0D6D72"/>
<path d="M24.9419 60.9312C25.3219 60.11 25.911 59.3617 26.5761 58.7777C30.2626 55.6022 35.5263 57.19 37.2175 61.4605C37.6546 62.5555 37.8446 63.8329 37.5976 65.0739C37.3505 66.3149 36.6284 67.5377 35.5833 68.1217C34.5571 68.7057 33.246 68.5597 32.5809 67.6289C32.3149 67.2457 32.0868 66.7529 31.9918 66.2967C31.8778 65.8039 31.7828 65.3112 31.3647 64.9827C31.1747 64.8367 30.9657 64.7454 30.7376 64.6907C30.0155 64.5264 29.3315 64.6907 28.8184 65.2017C28.4003 65.6214 27.9443 66.1142 27.3172 66.1872C26.8801 66.2419 26.4621 66.1142 26.082 65.8952C24.1628 64.8002 24.0868 62.7197 24.9419 60.9312Z" fill="#0D6D72"/>
<path d="M30.8896 51.8247C28.9324 51.9524 27.7922 54.3432 29.4645 55.6207C30.1676 56.1499 31.2317 56.223 31.9918 55.7849C32.7709 55.3469 33.1889 54.4162 33.0369 53.5584C32.8469 52.6094 31.8968 51.7517 30.8896 51.8247Z" fill="#0D6D72"/>
<path d="M36.5144 53.4121C34.5571 53.5398 33.417 55.9306 35.0892 57.2081C35.7923 57.7374 36.8564 57.8104 37.6165 57.3723C38.3956 56.9343 38.8137 56.0036 38.6617 55.1458C38.4716 54.1968 37.5405 53.3391 36.5144 53.4121Z" fill="#0D6D72"/>
<path d="M40.1059 58.2304C38.5287 58.1209 37.5025 59.9094 38.3006 61.1869C38.8897 62.1359 40.3909 62.4461 41.341 61.8074C43.0513 60.6394 42.0251 58.3581 40.1059 58.2304Z" fill="#0D6D72"/>
<path d="M25.3219 54.0693C23.7447 53.9598 22.7186 55.7482 23.5167 57.0257C24.1057 57.9747 25.6069 58.285 26.5571 57.6462C28.2673 56.4782 27.2412 54.197 25.3219 54.0693Z" fill="#0D6D72"/>
<path d="M59.7164 5.26912C60.0965 4.44787 60.6856 3.69962 61.3507 3.11562C65.0371 -0.0598818 70.3008 1.52787 71.9921 5.79837C72.4291 6.89337 72.6191 8.17088 72.3721 9.41188C72.1251 10.6529 71.403 11.8756 70.3578 12.4596C69.3317 13.0436 68.0205 12.8976 67.3555 11.9669C67.0894 11.5836 66.8614 11.0909 66.7664 10.6346C66.6524 10.1419 66.5574 9.64913 66.1393 9.32063C65.9493 9.17463 65.7402 9.08338 65.5122 9.02863C64.7901 8.86438 64.106 9.02863 63.593 9.53963C63.1749 9.95938 62.7188 10.4521 62.0918 10.5251C61.6547 10.5799 61.2366 10.4521 60.8566 10.2331C58.9373 9.13813 58.8613 7.05763 59.7164 5.26912Z" fill="#0D6D72"/>
<path d="M74.8804 2.56779C73.3032 2.45829 72.2771 4.24677 73.0752 5.52426C73.6643 6.47325 75.1655 6.7835 76.1156 6.14476C77.8258 4.97677 76.7997 2.69553 74.8804 2.56779Z" fill="#0D6D72"/>
<path d="M227.394 16.3099C227.128 15.4521 227.052 14.5214 227.185 13.6454C227.832 8.93693 232.905 6.83819 237.067 9.02818C238.15 9.59392 239.157 10.4334 239.822 11.5284C240.487 12.6234 240.753 14.0104 240.373 15.1054C239.993 16.2004 238.891 16.8939 237.77 16.6019C237.295 16.4741 236.801 16.2369 236.421 15.9631C236.003 15.6529 235.585 15.3426 235.052 15.3609C234.824 15.3609 234.596 15.4339 234.387 15.5434C233.722 15.8719 233.323 16.4376 233.285 17.1311C233.247 17.7151 233.247 18.3539 232.81 18.8101C232.525 19.1204 232.107 19.2846 231.689 19.3576C229.428 19.7409 227.965 18.2079 227.394 16.3099Z" fill="#0D6D72"/>
<path d="M225.722 5.68874C224.316 7.02099 225.095 9.53949 227.204 9.44824C228.098 9.41174 228.953 8.80949 229.238 7.98824C229.523 7.16699 229.219 6.19974 228.516 5.65224C227.756 5.06824 226.444 5.01349 225.722 5.68874Z" fill="#0D6D72"/>
<path d="M231.062 3.37095C229.656 4.7032 230.435 7.22171 232.544 7.13046C233.437 7.09396 234.292 6.49171 234.577 5.67046C234.863 4.8492 234.558 3.88195 233.855 3.33445C233.095 2.75044 231.803 2.67744 231.062 3.37095Z" fill="#0D6D72"/>
<path d="M237.067 4.77654C235.794 5.68904 236.231 7.67827 237.713 8.15277C238.815 8.49952 240.145 7.80602 240.43 6.72928C240.924 4.77654 238.606 3.68155 237.067 4.77654Z" fill="#0D6D72"/>
<path d="M223.043 10.8718C221.77 11.7842 222.207 13.7735 223.689 14.248C224.791 14.5947 226.121 13.9012 226.406 12.8245C226.9 10.8718 224.563 9.77676 223.043 10.8718Z" fill="#0D6D72"/>
<path d="M362.282 16.3099C362.016 15.4521 361.94 14.5214 362.073 13.6454C362.719 8.93693 367.793 6.83819 371.954 9.02818C373.038 9.59392 374.045 10.4334 374.71 11.5284C375.375 12.6234 375.641 14.0104 375.261 15.1054C374.881 16.2004 373.779 16.8939 372.658 16.6019C372.182 16.4741 371.688 16.2369 371.308 15.9631C370.89 15.6529 370.472 15.3426 369.94 15.3609C369.712 15.3609 369.484 15.4339 369.275 15.5434C368.61 15.8719 368.211 16.4376 368.173 17.1311C368.135 17.7151 368.135 18.3539 367.698 18.8101C367.413 19.1204 366.995 19.2846 366.577 19.3576C364.315 19.7409 362.852 18.2079 362.282 16.3099Z" fill="#0D6D72"/>
<path d="M360.61 5.68874C359.204 7.02099 359.983 9.53949 362.092 9.44824C362.985 9.41174 363.84 8.80949 364.125 7.98824C364.41 7.16699 364.106 6.19974 363.403 5.65224C362.643 5.06824 361.332 5.01349 360.61 5.68874Z" fill="#0D6D72"/>
<path d="M365.95 3.37095C364.544 4.7032 365.323 7.22171 367.432 7.13046C368.325 7.09396 369.18 6.49171 369.465 5.67046C369.75 4.8492 369.446 3.88195 368.743 3.33445C367.983 2.75044 366.691 2.67744 365.95 3.37095Z" fill="#0D6D72"/>
<path d="M371.954 4.77654C370.681 5.68904 371.118 7.67827 372.601 8.15277C373.703 8.49952 375.033 7.80602 375.318 6.72928C375.812 4.77654 373.494 3.68155 371.954 4.77654Z" fill="#0D6D72"/>
<path d="M357.931 10.8718C356.657 11.7842 357.095 13.7735 358.577 14.248C359.679 14.5947 361.009 13.9012 361.294 12.8245C361.788 10.8718 359.451 9.77676 357.931 10.8718Z" fill="#0D6D72"/>
<path d="M278.055 60.5116C278.644 59.8181 279.423 59.2341 280.222 58.8509C284.649 56.7339 289.286 59.5991 289.742 64.1433C289.856 65.3113 289.704 66.5888 289.115 67.7386C288.526 68.8883 287.5 69.8738 286.34 70.1658C285.181 70.4761 283.965 69.9833 283.585 68.9248C283.433 68.4868 283.357 67.9393 283.376 67.4831C283.414 66.9903 283.452 66.4793 283.129 66.0596C282.996 65.8771 282.806 65.7311 282.597 65.6216C281.951 65.2748 281.229 65.2748 280.621 65.6398C280.108 65.9318 279.537 66.2968 278.891 66.2056C278.454 66.1508 278.093 65.9136 277.789 65.6216C276.231 64.0521 276.744 62.0264 278.055 60.5116Z" fill="#0D6D72"/>
<path d="M286.302 53.248C284.364 52.883 282.616 54.8906 283.889 56.5331C284.421 57.2266 285.428 57.5551 286.283 57.3361C287.157 57.0989 287.823 56.3141 287.899 55.4563C287.975 54.5073 287.31 53.4488 286.302 53.248Z" fill="#0D6D72"/>
<path d="M291.3 56.2231C289.362 55.8581 287.614 57.8656 288.887 59.5082C289.419 60.2017 290.426 60.5302 291.281 60.3112C292.155 60.0739 292.82 59.2892 292.896 58.4314C292.972 57.4824 292.288 56.4056 291.3 56.2231Z" fill="#0D6D72"/>
<path d="M293.428 61.7709C291.927 61.2781 290.464 62.7199 290.882 64.1798C291.186 65.2566 292.554 65.9318 293.637 65.5486C295.595 64.8368 295.234 62.3731 293.428 61.7709Z" fill="#0D6D72"/>
<path d="M280.336 54.0145C278.834 53.5218 277.371 54.9635 277.789 56.4235C278.093 57.5003 279.461 58.1755 280.545 57.7923C282.483 57.0805 282.141 54.6168 280.336 54.0145Z" fill="#0D6D72"/>
<path d="M142.168 13.9195C142.301 13.0253 142.624 12.1493 143.118 11.4193C145.741 7.38607 151.252 7.47732 154.102 11.1273C154.843 12.058 155.394 13.226 155.527 14.5035C155.66 15.7628 155.318 17.1315 154.501 17.971C153.684 18.8105 152.392 19.0113 151.48 18.2995C151.099 18.0075 150.738 17.5878 150.51 17.1863C150.263 16.7483 150.016 16.292 149.522 16.0913C149.313 16 149.066 15.9818 148.838 15.9818C148.097 16.0183 147.489 16.365 147.147 16.9855C146.862 17.4965 146.577 18.0805 145.988 18.336C145.589 18.5003 145.152 18.5003 144.734 18.3908C142.548 17.8615 141.883 15.8723 142.168 13.9195Z" fill="#0D6D72"/>
<path d="M145.209 3.59053C143.365 4.24752 142.985 6.83899 144.943 7.60548C145.779 7.93398 146.805 7.71498 147.413 7.07624C148.021 6.4375 148.173 5.43376 147.755 4.66727C147.318 3.82778 146.178 3.24379 145.209 3.59053Z" fill="#0D6D72"/>
<path d="M151.08 3.59004C149.237 4.24704 148.857 6.8385 150.814 7.60499C151.651 7.93349 152.677 7.71449 153.285 7.07575C153.893 6.43701 154.045 5.43327 153.627 4.66678C153.19 3.82729 152.031 3.2433 151.08 3.59004Z" fill="#0D6D72"/>
<path d="M155.945 7.24C154.406 7.5685 153.95 9.55774 155.09 10.5615C155.945 11.328 157.465 11.2002 158.187 10.3242C159.461 8.77299 157.807 6.85675 155.945 7.24Z" fill="#0D6D72"/>
<path d="M140.534 7.24C138.995 7.5685 138.539 9.55774 139.679 10.5615C140.534 11.328 142.054 11.2002 142.776 10.3242C144.069 8.77299 142.415 6.85675 140.534 7.24Z" fill="#0D6D72"/>
<path d="M184.924 62.8292C185.057 61.935 185.38 61.059 185.874 60.329C188.496 56.2957 194.007 56.387 196.858 60.037C197.599 60.9677 198.15 62.1357 198.283 63.4132C198.416 64.6725 198.074 66.0412 197.257 66.8807C196.439 67.7202 195.147 67.921 194.235 67.2092C193.855 66.9172 193.494 66.4975 193.266 66.096C193.019 65.658 192.772 65.2017 192.278 65.001C192.069 64.9097 191.822 64.8915 191.594 64.8915C190.853 64.928 190.245 65.2747 189.903 65.8952C189.618 66.4062 189.333 66.9902 188.743 67.2457C188.344 67.41 187.907 67.41 187.489 67.3005C185.304 66.7712 184.639 64.782 184.924 62.8292Z" fill="#0D6D72"/>
<path d="M319.812 62.8292C319.945 61.935 320.268 61.059 320.762 60.329C323.384 56.2957 328.895 56.387 331.745 60.037C332.486 60.9677 333.037 62.1357 333.17 63.4132C333.303 64.6725 332.961 66.0412 332.144 66.8807C331.327 67.7202 330.035 67.921 329.123 67.2092C328.743 66.9172 328.382 66.4975 328.154 66.096C327.907 65.658 327.66 65.2017 327.166 65.001C326.957 64.9097 326.71 64.8915 326.481 64.8915C325.74 64.928 325.132 65.2747 324.79 65.8952C324.505 66.4062 324.22 66.9902 323.631 67.2457C323.232 67.41 322.795 67.41 322.377 67.3005C320.192 66.7712 319.527 64.782 319.812 62.8292Z" fill="#0D6D72"/>
<path d="M187.964 52.4997C186.121 53.1567 185.741 55.7482 187.698 56.5147C188.534 56.8432 189.561 56.6242 190.169 55.9855C190.777 55.3467 190.929 54.343 190.511 53.5765C190.074 52.737 188.933 52.153 187.964 52.4997Z" fill="#0D6D72"/>
<path d="M193.836 52.4997C191.993 53.1567 191.613 55.7482 193.57 56.5147C194.406 56.8432 195.432 56.6242 196.04 55.9855C196.648 55.3467 196.8 54.343 196.382 53.5765C195.945 52.737 194.786 52.153 193.836 52.4997Z" fill="#0D6D72"/>
<path d="M322.852 52.4997C321.009 53.1567 320.629 55.7482 322.586 56.5147C323.422 56.8432 324.448 56.6242 325.056 55.9855C325.664 55.3467 325.816 54.343 325.398 53.5765C324.961 52.737 323.821 52.153 322.852 52.4997Z" fill="#0D6D72"/>
<path d="M328.724 52.4997C326.881 53.1567 326.501 55.7482 328.458 56.5147C329.294 56.8432 330.32 56.6242 330.928 55.9855C331.536 55.3467 331.688 54.343 331.27 53.5765C330.833 52.737 329.674 52.153 328.724 52.4997Z" fill="#0D6D72"/>
<path d="M198.701 56.1497C197.162 56.4782 196.706 58.4674 197.846 59.4712C198.701 60.2377 200.221 60.1099 200.943 59.2339C202.216 57.6827 200.563 55.7664 198.701 56.1497Z" fill="#0D6D72"/>
<path d="M333.588 56.1497C332.049 56.4782 331.593 58.4674 332.733 59.4712C333.588 60.2377 335.109 60.1099 335.831 59.2339C337.104 57.6827 335.451 55.7664 333.588 56.1497Z" fill="#0D6D72"/>
<path d="M183.29 56.1497C181.751 56.4782 181.294 58.4674 182.435 59.4712C183.29 60.2377 184.81 60.1099 185.532 59.2339C186.824 57.6827 185.171 55.7664 183.29 56.1497Z" fill="#0D6D72"/>
<path d="M73.2462 172.785C73.2652 171.891 73.4553 170.979 73.8353 170.176C75.8876 165.85 81.3603 165.248 84.6857 168.497C85.5408 169.336 86.2629 170.413 86.567 171.654C86.871 172.895 86.719 174.282 86.0159 175.231C85.3128 176.162 84.0586 176.527 83.0705 175.943C82.6525 175.705 82.2344 175.322 81.9684 174.957C81.6643 174.556 81.3603 174.136 80.8282 173.99C80.6002 173.935 80.3532 173.935 80.1251 173.972C79.384 174.099 78.833 174.519 78.6049 175.194C78.3959 175.742 78.1869 176.362 77.6358 176.673C77.2558 176.892 76.8187 176.928 76.4006 176.892C74.1583 176.636 73.2272 174.756 73.2462 172.785Z" fill="#0D6D72"/>
<path d="M74.8614 162.164C73.1132 163.04 73.0942 165.668 75.1465 166.179C76.0206 166.398 77.0087 166.051 77.5218 165.34C78.0349 164.628 78.0539 163.624 77.5408 162.894C76.9897 162.127 75.7546 161.708 74.8614 162.164Z" fill="#0D6D72"/>
<path d="M80.6762 161.415C78.928 162.291 78.909 164.919 80.9612 165.43C81.8354 165.649 82.8235 165.303 83.3366 164.591C83.8496 163.879 83.8686 162.875 83.3555 162.145C82.8045 161.379 81.5693 160.959 80.6762 161.415Z" fill="#0D6D72"/>
<path d="M85.9969 164.427C84.5147 164.938 84.3247 166.964 85.5979 167.84C86.548 168.479 88.0302 168.187 88.6193 167.219C89.6834 165.486 87.7832 163.807 85.9969 164.427Z" fill="#0D6D72"/>
<path d="M70.7189 166.361C69.2367 166.872 69.0467 168.898 70.3199 169.774C71.27 170.413 72.7522 170.121 73.3413 169.153C74.4244 167.438 72.5241 165.741 70.7189 166.361Z" fill="#0D6D72"/>
<path d="M31.7068 202.679C29.7305 202.624 28.3813 204.905 29.9015 206.31C30.5476 206.913 31.5927 207.077 32.4099 206.694C33.227 206.329 33.74 205.434 33.664 204.577C33.569 203.646 32.7139 202.697 31.7068 202.679Z" fill="#0D6D72"/>
<path d="M278.568 195.415C278.359 194.539 278.34 193.609 278.511 192.751C279.461 188.079 284.63 186.29 288.678 188.718C289.723 189.338 290.673 190.232 291.262 191.382C291.851 192.514 292.041 193.919 291.585 194.977C291.129 196.036 289.989 196.675 288.887 196.328C288.431 196.182 287.937 195.908 287.576 195.616C287.176 195.288 286.796 194.959 286.245 194.941C286.017 194.941 285.77 194.996 285.561 195.087C284.877 195.379 284.44 195.908 284.364 196.602C284.288 197.186 284.25 197.824 283.794 198.262C283.49 198.554 283.072 198.7 282.635 198.737C280.393 198.956 279.024 197.35 278.568 195.415Z" fill="#0D6D72"/>
<path d="M277.58 184.721C276.098 185.962 276.706 188.517 278.834 188.572C279.727 188.59 280.621 188.024 280.944 187.221C281.286 186.418 281.039 185.432 280.374 184.848C279.632 184.21 278.34 184.082 277.58 184.721Z" fill="#0D6D72"/>
<path d="M283.053 182.713C281.571 183.954 282.179 186.509 284.307 186.564C285.2 186.582 286.093 186.016 286.416 185.213C286.758 184.41 286.511 183.425 285.846 182.841C285.105 182.202 283.832 182.074 283.053 182.713Z" fill="#0D6D72"/>
<path d="M288.944 184.465C287.613 185.305 287.937 187.312 289.381 187.878C290.464 188.298 291.832 187.677 292.174 186.6C292.801 184.684 290.559 183.443 288.944 184.465Z" fill="#0D6D72"/>
<path d="M274.559 189.739C273.229 190.579 273.552 192.586 274.996 193.152C276.079 193.572 277.447 192.951 277.789 191.875C278.416 189.958 276.155 188.735 274.559 189.739Z" fill="#0D6D72"/>
<path d="M214.72 175.705C214.511 174.829 214.492 173.899 214.663 173.041C215.613 168.369 220.782 166.58 224.829 169.008C225.874 169.628 226.824 170.522 227.414 171.672C228.003 172.804 228.193 174.209 227.737 175.267C227.281 176.326 226.14 176.965 225.038 176.618C224.582 176.472 224.088 176.198 223.727 175.906C223.328 175.578 222.948 175.249 222.397 175.231C222.169 175.231 221.922 175.286 221.713 175.377C221.029 175.669 220.592 176.198 220.516 176.892C220.44 177.476 220.402 178.114 219.946 178.552C219.642 178.844 219.223 178.99 218.786 179.027C216.544 179.246 215.176 177.64 214.72 175.705Z" fill="#0D6D72"/>
<path d="M213.732 165.011C212.25 166.252 212.858 168.807 214.986 168.862C215.879 168.88 216.772 168.314 217.095 167.511C217.437 166.708 217.19 165.723 216.525 165.139C215.784 164.5 214.492 164.372 213.732 165.011Z" fill="#0D6D72"/>
<path d="M219.204 163.003C217.722 164.244 218.33 166.799 220.459 166.854C221.352 166.872 222.245 166.307 222.568 165.504C222.91 164.701 222.663 163.715 221.998 163.131C221.257 162.492 219.984 162.365 219.204 163.003Z" fill="#0D6D72"/>
<path d="M225.095 164.755C223.765 165.595 224.088 167.602 225.532 168.168C226.615 168.588 227.984 167.967 228.326 166.89C228.953 164.974 226.71 163.733 225.095 164.755Z" fill="#0D6D72"/>
<path d="M210.71 170.029C209.38 170.869 209.703 172.876 211.147 173.442C212.231 173.862 213.599 173.241 213.941 172.165C214.568 170.248 212.307 169.026 210.71 170.029Z" fill="#0D6D72"/>
<path d="M349.608 175.705C349.399 174.829 349.38 173.899 349.551 173.041C350.501 168.369 355.669 166.58 359.717 169.008C360.762 169.628 361.712 170.522 362.301 171.672C362.89 172.804 363.08 174.209 362.624 175.267C362.168 176.326 361.028 176.965 359.926 176.618C359.47 176.472 358.976 176.198 358.615 175.906C358.216 175.578 357.836 175.249 357.285 175.231C357.057 175.231 356.81 175.286 356.6 175.377C355.916 175.669 355.479 176.198 355.403 176.892C355.327 177.476 355.289 178.114 354.833 178.552C354.529 178.844 354.111 178.99 353.674 179.027C351.432 179.246 350.064 177.64 349.608 175.705Z" fill="#0D6D72"/>
<path d="M348.619 165.011C347.137 166.252 347.745 168.807 349.874 168.862C350.767 168.88 351.66 168.314 351.983 167.511C352.325 166.708 352.078 165.723 351.413 165.139C350.672 164.5 349.38 164.372 348.619 165.011Z" fill="#0D6D72"/>
<path d="M354.092 163.003C352.61 164.244 353.218 166.799 355.346 166.854C356.239 166.872 357.133 166.307 357.456 165.504C357.798 164.701 357.551 163.715 356.886 163.131C356.144 162.492 354.871 162.365 354.092 163.003Z" fill="#0D6D72"/>
<path d="M359.983 164.755C358.653 165.595 358.976 167.602 360.42 168.168C361.503 168.588 362.871 167.967 363.213 166.89C363.84 164.974 361.598 163.733 359.983 164.755Z" fill="#0D6D72"/>
<path d="M345.598 170.029C344.268 170.869 344.591 172.876 346.035 173.442C347.118 173.862 348.486 173.241 348.828 172.165C349.455 170.248 347.194 169.026 345.598 170.029Z" fill="#0D6D72"/>
<path d="M141.712 163.478C142.035 162.638 142.548 161.835 143.175 161.215C146.596 157.784 151.974 158.97 153.988 163.095C154.501 164.153 154.805 165.412 154.672 166.672C154.52 167.931 153.893 169.208 152.924 169.865C151.936 170.522 150.624 170.468 149.902 169.592C149.598 169.227 149.332 168.752 149.199 168.296C149.047 167.821 148.914 167.329 148.458 167.037C148.268 166.909 148.04 166.836 147.812 166.799C147.071 166.69 146.406 166.909 145.95 167.456C145.57 167.913 145.152 168.424 144.525 168.551C144.088 168.643 143.67 168.533 143.27 168.351C141.237 167.402 141.009 165.321 141.712 163.478Z" fill="#0D6D72"/>
<path d="M146.9 153.97C144.962 154.243 144.012 156.707 145.779 157.857C146.52 158.331 147.584 158.331 148.325 157.82C149.066 157.309 149.408 156.36 149.18 155.521C148.914 154.608 147.907 153.824 146.9 153.97Z" fill="#0D6D72"/>
<path d="M152.639 155.12C150.7 155.393 149.75 157.857 151.518 159.007C152.259 159.481 153.323 159.481 154.064 158.97C154.805 158.459 155.147 157.51 154.919 156.671C154.653 155.758 153.646 154.974 152.639 155.12Z" fill="#0D6D72"/>
<path d="M156.61 159.664C155.033 159.682 154.159 161.525 155.052 162.748C155.717 163.66 157.237 163.843 158.13 163.131C159.727 161.854 158.529 159.645 156.61 159.664Z" fill="#0D6D72"/>
<path d="M141.541 156.616C139.964 156.634 139.09 158.477 139.983 159.7C140.648 160.612 142.168 160.795 143.061 160.083C144.658 158.806 143.46 156.598 141.541 156.616Z" fill="#0D6D72"/>
<path d="M172.287 204.011C171.508 205.745 173.18 207.807 175.119 206.986C175.936 206.639 176.487 205.763 176.43 204.905C176.373 204.048 175.727 203.245 174.853 202.989C173.94 202.697 172.705 203.099 172.287 204.011Z" fill="#0D6D72"/>
<path d="M178.406 203.171C177.589 204.467 178.748 206.164 180.306 206.073C181.465 206.018 182.435 204.887 182.264 203.773C181.979 201.784 179.394 201.602 178.406 203.171Z" fill="#0D6D72"/>
<path d="M168.772 43.083L167.936 43.521L166.834 43.6853L165.693 43.521L164.876 42.9188L164.306 42.1705L164.059 41.3675L164.135 40.4368L164.553 39.4878L165.522 38.63L166.872 37.973L167.936 37.2978L168.715 36.4948L169.437 35.4546L170.064 34.2501L173.541 26.3113L174.093 24.7784L174.34 23.2271L174.226 21.6029L173.903 20.0334L173.769 18.9019L173.903 17.5879L174.701 16.3469L175.632 15.5621L177.076 15.3066L178.425 16.0184L179.375 16.8396L179.85 17.6974L180.002 18.3179L180.819 17.7704L181.77 17.5331L182.834 17.6609L184.031 18.2996L184.848 19.5406L184.696 21.3109L183.366 22.5154L181.941 23.2636L180.667 24.1396L179.755 25.2346L178.976 26.9683L175.062 35.8013L174.397 37.5898L174.435 39.1775L174.815 40.966L175.157 42.5538L175.062 43.886L174.112 45.0358L172.971 45.5285L171.66 45.638L170.596 45.4373L169.589 44.6708L168.981 43.7035L168.772 43.083Z" fill="#0D6D72"/>
<path d="M86.1109 76.1152L87.042 76.3342L87.9542 76.9182L88.6763 77.7942L88.8283 78.7797L88.7333 79.6922L88.3342 80.4404L87.6311 81.0792L86.643 81.4989L85.3318 81.4807L83.8686 81.0792L82.5955 80.8784L81.4743 80.9514L80.2011 81.2434L78.89 81.7179L70.7189 85.2401L69.2177 86.0066L67.9255 86.9739L66.8614 88.2331L65.9873 89.5836L65.2842 90.5144L64.239 91.3904L62.7758 91.7736L61.5407 91.7371L60.3055 90.9706L59.8305 89.5836L59.7164 88.3426L59.9825 87.4119L60.3055 86.8461L59.3174 86.7184L58.4623 86.2804L57.7782 85.4774L57.3411 84.2181L57.6262 82.7947L58.9943 81.5902H60.8186L62.3958 81.9734L63.973 82.1559L65.4172 81.9552L67.2034 81.1887L76.3436 77.3014L78.0919 76.4254L79.213 75.2574L80.1821 73.6879L81.0563 72.3009L82.0824 71.3884L83.5836 71.1694L84.7807 71.5709L85.8259 72.3374L86.434 73.1952L86.643 74.3997L86.396 75.5129L86.1109 76.1152Z" fill="#0D6D72"/>
<path d="M86.1112 24.4682L87.0423 24.6872L87.9545 25.2712L88.6766 26.1472L88.8286 27.1327L88.7336 28.0452L88.3345 28.7934L87.6314 29.4322L86.6433 29.8519L85.3321 29.8337L83.8689 29.4322L82.5958 29.2314L81.4746 29.3044L80.2014 29.5964L78.8903 30.0709L70.7192 33.5932L69.218 34.3597L67.9258 35.3269L66.8617 36.5861L65.9876 37.9366L65.2845 38.8674L64.2393 39.7434L62.7761 40.1266L61.541 40.0901L60.3058 39.3236L59.8308 37.9366L59.7167 36.6956L59.9828 35.7649L60.3058 35.1991L59.3177 35.0714L58.4626 34.6334L57.7785 33.8304L57.3414 32.5712L57.6265 31.1477L58.9947 29.9432H60.8189L62.3961 30.3264L63.9733 30.5089L65.4175 30.3082L67.2037 29.5417L76.3439 25.6544L78.0922 24.7784L79.2133 23.6104L80.1824 22.041L81.0566 20.654L82.0827 19.7415L83.5839 19.5225L84.781 19.924L85.8262 20.6905L86.4343 21.5482L86.6433 22.7527L86.3963 23.8659L86.1112 24.4682Z" fill="#0D6D72"/>
<path d="M30.9846 41.7688L31.1177 42.6813L30.8896 43.7215L30.3006 44.6888L29.4264 45.1998L28.4953 45.437L27.6402 45.364L26.7471 44.9808L25.968 44.2508L25.4929 43.0828L25.3409 41.6228L25.0559 40.4183L24.5808 39.451L23.8207 38.4108L22.8706 37.4253L16.4097 31.4575L15.1176 30.4173L13.6924 29.6143L12.0772 29.1398L10.4429 28.866L9.30279 28.5923L8.06762 27.99L7.1365 26.822L6.71844 25.7088L7.00348 24.3218L8.16264 23.391L9.32179 22.8253L10.3099 22.7158L10.975 22.7888L10.728 21.858L10.842 20.9273L11.3551 20.0148L12.4192 19.1753L13.9014 18.8833L15.5736 19.6498L16.2577 21.274L16.4667 22.8253L16.8658 24.3035L17.6069 25.508L19.0131 26.822L26.177 33.5198L27.6782 34.7425L29.2364 35.29L31.1177 35.582L32.7899 35.8558L34.044 36.4215L34.8041 37.6808L34.8802 38.8853L34.5191 40.108L33.93 40.984L32.8279 41.6045L31.6687 41.8053L30.9846 41.7688Z" fill="#0D6D72"/>
<path d="M30.2245 117.871L30.3576 118.783L30.1295 119.823L29.5405 120.791L28.6663 121.302L27.7352 121.539L26.8801 121.466L25.987 121.083L25.2079 120.353L24.7328 119.185L24.5808 117.725L24.2958 116.52L23.8207 115.553L23.0606 114.513L22.1105 113.527L15.6496 107.56L14.3574 106.519L12.9323 105.716L11.317 105.242L9.68284 104.968L8.54269 104.694L7.30752 104.092L6.3764 102.924L5.95834 101.811L6.24338 100.424L7.40254 99.4931L8.56169 98.9273L9.54982 98.8178L10.2149 98.8908L9.96787 97.9601L10.0819 97.0293L10.595 96.1168L11.6591 95.2773L13.1413 94.9854L14.8135 95.7518L15.4976 97.3761L15.7066 98.9273L16.1057 100.406L16.8468 101.61L18.253 102.924L25.4169 109.622L26.9181 110.845L28.4763 111.392L30.3576 111.684L32.0298 111.958L33.2839 112.524L34.044 113.783L34.1201 114.987L33.759 116.21L33.1699 117.086L32.0678 117.706L30.9086 117.907L30.2245 117.871Z" fill="#0D6D72"/>
<path d="M60.7046 147.856L59.7734 147.582L58.8993 146.925L58.2342 146.031L58.1202 145.046L58.2912 144.133L58.7283 143.421L59.4694 142.801L60.4765 142.436L61.7877 142.527L63.2319 143.002L64.467 143.275L65.5882 143.257L66.8994 143.038L68.2295 142.637L76.5906 139.571L78.1298 138.877L79.479 137.983L80.6192 136.778L81.5693 135.464L82.3294 134.588L83.4125 133.785L84.8947 133.475L86.1299 133.566L87.3271 134.406L87.7071 135.811L87.7451 137.052L87.4411 137.965L87.08 138.512L88.0492 138.695L88.9043 139.187L89.5313 140.027L89.8924 141.304L89.5124 142.71L88.0872 143.841L86.2629 143.75L84.7047 143.275L83.1465 143.002L81.7023 143.129L79.8591 143.786L70.5098 147.181L68.7046 147.965L67.5264 149.079L66.4623 150.593L65.5122 151.926L64.429 152.783L62.9278 152.911L61.7687 152.455L60.7616 151.634L60.1915 150.739L60.0585 149.517L60.3625 148.44L60.7046 147.856Z" fill="#0D6D72"/>
<path d="M30.8516 191.618L31.0797 192.512L30.9657 193.571L30.5096 194.593L29.6735 195.177L28.7994 195.523L27.9253 195.542L26.9941 195.25L26.158 194.611L25.5309 193.479L25.2269 192.056L24.8089 190.888L24.2198 189.975L23.3457 189.026L22.3005 188.132L15.2316 182.858L13.8254 181.945L12.3242 181.307L10.652 180.996L8.99877 180.887L7.83961 180.723L6.54745 180.248L5.50231 179.19L4.95123 178.131L5.08425 176.726L6.12939 175.668L7.21253 174.992L8.20066 174.773L8.86575 174.792L8.5237 173.897V172.948L8.92276 171.999L9.89188 171.05L11.3361 170.612L13.0843 171.196L13.9394 172.748L14.3195 174.262L14.8895 175.686L15.7637 176.817L17.3029 177.985L25.1699 183.898L26.7851 184.975L28.4003 185.358L30.3006 185.468L31.9918 185.559L33.303 185.997L34.2151 187.165L34.4051 188.351L34.1771 189.61L33.683 190.541L32.6569 191.271L31.5357 191.581L30.8516 191.618Z" fill="#0D6D72"/>
<path d="M123.603 139.899L123.261 140.756L122.539 141.559L121.551 142.143L120.524 142.18L119.593 141.979L118.871 141.523L118.282 140.775L117.959 139.789L118.13 138.53L118.7 137.179L119.061 135.993L119.118 134.916L118.966 133.657L118.643 132.361L115.926 124.149L115.299 122.634L114.463 121.302L113.265 120.134L111.973 119.13L111.099 118.364L110.32 117.269L110.092 115.827L110.263 114.659L111.194 113.564L112.695 113.272L113.988 113.309L114.919 113.655L115.47 114.039L115.717 113.108L116.268 112.341L117.18 111.776L118.529 111.52L119.973 111.958L121.057 113.382L120.847 115.134L120.258 116.594L119.878 118.072L119.935 119.477L120.505 121.284L123.489 130.445L124.192 132.215L125.275 133.402L126.795 134.533L128.125 135.519L128.943 136.595L129 138.055L128.448 139.132L127.536 140.045L126.586 140.556L125.294 140.592L124.173 140.227L123.603 139.899Z" fill="#0D6D72"/>
<path d="M119.612 205.051L119.27 205.908L118.548 206.711L117.56 207.295L116.534 207.332L115.603 207.131L114.881 206.675L114.292 205.927L113.969 204.941L114.14 203.682L114.71 202.331L115.071 201.145L115.128 200.068L114.976 198.809L114.653 197.513L111.935 189.301L111.308 187.786L110.472 186.454L109.275 185.286L107.983 184.282L107.109 183.516L106.33 182.421L106.102 180.979L106.273 179.811L107.204 178.716L108.705 178.424L109.997 178.46L110.928 178.807L111.479 179.19L111.726 178.26L112.277 177.493L113.189 176.927L114.539 176.672L115.983 177.11L117.066 178.533L116.857 180.285L116.268 181.745L115.888 183.224L115.945 184.629L116.515 186.436L119.498 195.597L120.201 197.367L121.285 198.554L122.805 199.685L124.135 200.671L124.952 201.747L125.009 203.207L124.458 204.284L123.546 205.197L122.596 205.708L121.304 205.744L120.182 205.379L119.612 205.051Z" fill="#0D6D72"/>
<path d="M190.549 190.834L190.777 191.747L190.644 192.805L190.169 193.809L189.333 194.393L188.439 194.722H187.565L186.634 194.411L185.798 193.773L185.209 192.641L184.905 191.218L184.525 190.031L183.936 189.119L183.081 188.152L182.055 187.239L175.043 181.892L173.655 180.961L172.154 180.304L170.501 179.976L168.848 179.848L167.689 179.665L166.396 179.173L165.351 178.114L164.819 177.037L164.971 175.632L166.035 174.592L167.138 173.935L168.107 173.716L168.791 173.734L168.449 172.84L168.468 171.891L168.886 170.942L169.855 170.011L171.318 169.591L173.047 170.212L173.902 171.763L174.245 173.296L174.796 174.72L175.651 175.851L177.171 177.056L184.962 183.06L186.577 184.155L188.173 184.556L190.074 184.684L191.765 184.794L193.076 185.25L193.969 186.436L194.14 187.622L193.912 188.863L193.399 189.794L192.373 190.506L191.233 190.816L190.549 190.834Z" fill="#0D6D72"/>
<path d="M325.436 190.834L325.664 191.747L325.531 192.805L325.056 193.809L324.22 194.393L323.327 194.722H322.453L321.522 194.411L320.686 193.773L320.097 192.641L319.793 191.218L319.412 190.031L318.823 189.119L317.968 188.152L316.942 187.239L309.93 181.892L308.543 180.961L307.042 180.304L305.389 179.976L303.735 179.848L302.576 179.665L301.284 179.173L300.239 178.114L299.707 177.037L299.859 175.632L300.923 174.592L302.025 173.935L302.994 173.716L303.678 173.734L303.336 172.84L303.355 171.891L303.773 170.942L304.743 170.011L306.206 169.591L307.935 170.212L308.79 171.763L309.132 173.296L309.683 174.72L310.538 175.851L312.059 177.056L319.85 183.06L321.465 184.155L323.061 184.556L324.961 184.684L326.652 184.794L327.964 185.25L328.857 186.436L329.028 187.622L328.8 188.863L328.287 189.794L327.261 190.506L326.12 190.816L325.436 190.834Z" fill="#0D6D72"/>
<path d="M254.226 197.478L253.808 198.317L253.029 199.065L251.984 199.558L250.958 199.503L250.046 199.211L249.362 198.7L248.849 197.897L248.64 196.894L248.906 195.653L249.609 194.357L250.084 193.207L250.236 192.149L250.198 190.871L249.989 189.557L248.069 181.144L247.594 179.593L246.872 178.169L245.808 176.91L244.611 175.815L243.813 174.975L243.129 173.807L243.034 172.347L243.319 171.198L244.364 170.194L245.884 170.03L247.157 170.176L248.05 170.614L248.564 171.033L248.887 170.139L249.533 169.409L250.483 168.935L251.851 168.789L253.238 169.354L254.188 170.869L253.827 172.603L253.105 173.99L252.592 175.432L252.497 176.837L252.915 178.68L255.005 188.061L255.537 189.886L256.526 191.181L257.913 192.422L259.148 193.517L259.87 194.667L259.775 196.127L259.129 197.167L258.141 197.989L257.134 198.39L255.861 198.335L254.777 197.879L254.226 197.478Z" fill="#0D6D72"/>
<path d="M389.114 197.478L388.696 198.317L387.917 199.065L386.872 199.558L385.846 199.503L384.933 199.211L384.249 198.7L383.736 197.897L383.527 196.894L383.793 195.653L384.496 194.357L384.971 193.207L385.123 192.149L385.085 190.871L384.876 189.557L382.957 181.144L382.482 179.593L381.76 178.169L380.696 176.91L379.499 175.815L378.701 174.975L378.016 173.807L377.921 172.347L378.206 171.198L379.252 170.194L380.772 170.03L382.045 170.176L382.938 170.614L383.451 171.033L383.774 170.139L384.42 169.409L385.37 168.935L386.739 168.789L388.126 169.354L389.076 170.869L388.715 172.603L387.993 173.99L387.48 175.432L387.385 176.837L387.803 178.68L389.893 188.061L390.425 189.886L391.413 191.181L392.8 192.422L394.036 193.517L394.758 194.667L394.663 196.127L394.017 197.167L393.028 197.989L392.021 198.39L390.748 198.335L389.665 197.879L389.114 197.478Z" fill="#0D6D72"/>
<path d="M284.554 139.223L284.288 140.099L283.623 140.957L282.692 141.614L281.666 141.723L280.716 141.577L279.956 141.158L279.328 140.464L278.929 139.497L279.005 138.238L279.48 136.851L279.746 135.646L279.727 134.569L279.48 133.31L279.043 132.033L275.737 124.057L275.015 122.579L274.046 121.302L272.792 120.225L271.423 119.312L270.492 118.619L269.637 117.579L269.295 116.155L269.39 114.969L270.245 113.819L271.708 113.418L272.982 113.363L273.951 113.655L274.521 113.983L274.692 113.053L275.205 112.231L276.06 111.611L277.39 111.264L278.853 111.611L280.051 112.961L279.975 114.713L279.499 116.21L279.233 117.706L279.385 119.112L280.089 120.864L283.737 129.806L284.573 131.522L285.751 132.635L287.347 133.657L288.754 134.551L289.647 135.573L289.818 137.015L289.343 138.146L288.488 139.114L287.576 139.661L286.302 139.807L285.162 139.515L284.554 139.223Z" fill="#0D6D72"/>
<path d="M419.442 139.223L419.176 140.099L418.511 140.957L417.58 141.614L416.553 141.723L415.603 141.577L414.843 141.158L414.216 140.464L413.817 139.497L413.893 138.238L414.368 136.851L414.634 135.646L414.615 134.569L414.368 133.31L413.931 132.033L410.625 124.057L409.903 122.579L408.933 121.302L407.679 120.225L406.311 119.312L405.38 118.619L404.525 117.579L404.183 116.155L404.278 114.969L405.133 113.819L406.596 113.418L407.869 113.363L408.838 113.655L409.408 113.983L409.579 113.053L410.093 112.231L410.948 111.611L412.278 111.264L413.741 111.611L414.938 112.961L414.862 114.713L414.387 116.21L414.121 117.706L414.273 119.112L414.976 120.864L418.625 129.806L419.461 131.522L420.639 132.635L422.235 133.657L423.641 134.551L424.534 135.573L424.706 137.015L424.23 138.146L423.375 139.114L422.463 139.661L421.19 139.807L420.05 139.515L419.442 139.223Z" fill="#0D6D72"/>
<path d="M191.613 114.55L191.879 115.444L191.784 116.502L191.347 117.524L190.53 118.145L189.656 118.492L188.781 118.528L187.85 118.254L186.995 117.634L186.349 116.521L186.007 115.097L185.57 113.947L184.962 113.053L184.069 112.104L183.005 111.247L175.803 106.137L174.378 105.261L172.857 104.64L171.185 104.366L169.532 104.293L168.354 104.166L167.043 103.709L165.978 102.669L165.408 101.629L165.503 100.224L166.529 99.1286L167.594 98.4351L168.563 98.1978H169.247L168.867 97.3036L168.848 96.3728L169.247 95.4056L170.178 94.4384L171.603 93.9639L173.37 94.5296L174.283 96.0443L174.682 97.5591L175.29 98.9643L176.183 100.078L177.76 101.209L185.76 106.958L187.413 107.998L189.028 108.345L190.929 108.4L192.62 108.454L193.931 108.874L194.881 110.024L195.09 111.21L194.9 112.451L194.444 113.4L193.418 114.166L192.297 114.495L191.613 114.55Z" fill="#0D6D72"/>
<path d="M326.5 114.55L326.766 115.444L326.671 116.502L326.234 117.524L325.417 118.145L324.543 118.492L323.669 118.528L322.738 118.254L321.883 117.634L321.237 116.521L320.895 115.097L320.458 113.947L319.85 113.053L318.956 112.104L317.892 111.247L310.69 106.137L309.265 105.261L307.745 104.64L306.073 104.366L304.42 104.293L303.241 104.166L301.93 103.709L300.866 102.669L300.296 101.629L300.391 100.224L301.417 99.1286L302.481 98.4351L303.45 98.1978H304.135L303.754 97.3036L303.735 96.3728L304.135 95.4056L305.066 94.4384L306.491 93.9639L308.258 94.5296L309.17 96.0443L309.569 97.5591L310.177 98.9643L311.07 100.078L312.648 101.209L320.648 106.958L322.301 107.998L323.916 108.345L325.816 108.4L327.508 108.454L328.819 108.874L329.769 110.024L329.978 111.21L329.788 112.451L329.332 113.4L328.306 114.166L327.185 114.495L326.5 114.55Z" fill="#0D6D72"/>
<path d="M219.87 73.286L218.938 73.1035L217.988 72.5378L217.247 71.6983L217.038 70.731L217.114 69.8185L217.475 69.052L218.159 68.3768L219.128 67.9388L220.44 67.9023L221.922 68.2308L223.195 68.395L224.297 68.2855L225.57 67.9388L226.862 67.4278L234.881 63.6136L236.345 62.7923L237.618 61.7703L238.625 60.4746L239.442 59.0876L240.107 58.1386L241.114 57.2261L242.558 56.7881H243.794L245.067 57.4998L245.599 58.8686L245.751 60.1096L245.523 61.0403L245.238 61.6243L246.226 61.7156L247.1 62.1171L247.822 62.9018L248.297 64.1428L248.069 65.5663L246.758 66.8255L244.934 66.8985L243.338 66.57L241.76 66.4423L240.316 66.6978L238.549 67.519L229.58 71.753L227.87 72.6838L226.805 73.9065L225.874 75.5125L225.057 76.9178L224.069 77.8668L222.587 78.1405L221.39 77.7938L220.307 77.0638L219.66 76.2243L219.413 75.0198L219.603 73.9065L219.87 73.286Z" fill="#0D6D72"/>
<path d="M354.757 73.286L353.826 73.1035L352.876 72.5378L352.135 71.6983L351.926 70.731L352.002 69.8185L352.363 69.052L353.047 68.3768L354.016 67.9388L355.327 67.9023L356.81 68.2308L358.083 68.395L359.185 68.2855L360.458 67.9388L361.75 67.4278L369.769 63.6136L371.232 62.7923L372.506 61.7703L373.513 60.4746L374.33 59.0876L374.995 58.1386L376.002 57.2261L377.446 56.7881H378.681L379.955 57.4998L380.487 58.8686L380.639 60.1096L380.411 61.0403L380.126 61.6243L381.114 61.7156L381.988 62.1171L382.71 62.9018L383.185 64.1428L382.957 65.5663L381.646 66.8255L379.822 66.8985L378.225 66.57L376.648 66.4423L375.204 66.6978L373.437 67.519L364.468 71.753L362.757 72.6838L361.693 73.9065L360.762 75.5125L359.945 76.9178L358.957 77.8668L357.475 78.1405L356.277 77.7938L355.194 77.0638L354.548 76.2243L354.301 75.0198L354.491 73.9065L354.757 73.286Z" fill="#0D6D72"/>
<path d="M168.772 43.2656L167.936 43.7036L166.834 43.8861L165.694 43.7036L164.896 43.1014L164.306 42.3714L164.078 41.5684L164.135 40.6194L164.553 39.6704L165.523 38.8127L166.872 38.1557L167.955 37.4804L168.715 36.6957L169.456 35.6372L170.083 34.4327L173.542 26.494L174.093 24.961L174.34 23.4097L174.226 21.7855L173.903 20.216L173.751 19.0845L173.903 17.7705L174.701 16.5295L175.632 15.7448L177.076 15.4893L178.406 16.201L179.356 17.0223L179.831 17.88L180.003 18.5005L180.801 17.953L181.77 17.6975L182.834 17.8435L184.031 18.4822L184.829 19.705L184.696 21.4752L183.366 22.6797L181.941 23.428L180.649 24.3222L179.755 25.4172L178.976 27.151L175.062 35.9839L174.397 37.7724L174.435 39.3602L174.834 41.1486L175.176 42.7364L175.062 44.0686L174.131 45.2184L172.991 45.7111L171.66 45.8389L170.615 45.6199L169.608 44.8534L169 43.8861L168.772 43.2656Z" fill="#0D6D72"/>
<path d="M122.919 64.2711L122.577 65.1288L121.855 65.9501L120.886 66.5341L119.84 66.5706L118.909 66.3698L118.187 65.8953L117.598 65.1471L117.275 64.1799L117.446 62.9206L118.016 61.5701L118.377 60.3839L118.415 59.3071L118.263 58.0479L117.94 56.7339L115.204 48.5396L114.596 47.0431L113.741 45.6926L112.543 44.5246L111.251 43.5391L110.377 42.7726L109.598 41.6776L109.351 40.2359L109.541 39.0496L110.472 37.9729L111.954 37.6626L113.246 37.6991L114.178 38.0641L114.729 38.4291L114.976 37.4984L115.527 36.7319L116.439 36.1661L117.788 35.9106L119.232 36.3304L120.315 37.7721L120.125 39.5241L119.536 40.9841L119.156 42.4624L119.213 43.8494L119.783 45.6561L122.786 54.8176L123.489 56.5879L124.591 57.7741L126.092 58.9056L127.422 59.8911L128.258 60.9679L128.315 62.4279L127.764 63.5046L126.852 64.4171L125.902 64.9281L124.61 64.9646L123.489 64.6178L122.919 64.2711Z" fill="#0D6D72"/>
<path d="M123.052 64.3995L122.71 65.2755L121.988 66.0785L121 66.6624L119.973 66.6989L119.042 66.4982L118.32 66.0419L117.731 65.2937L117.408 64.3082L117.56 63.049L118.149 61.6985L118.491 60.5305L118.548 59.4537L118.396 58.1762L118.054 56.8805L115.337 48.6863L114.71 47.1715L113.855 45.8393L112.657 44.6713L111.365 43.6858L110.491 42.9193L109.712 41.8243L109.465 40.3825L109.655 39.1963L110.586 38.1013L112.068 37.8093L113.361 37.8458L114.292 38.1926L114.843 38.5758L115.09 37.6451L115.641 36.8786L116.553 36.3128L117.902 36.0391L119.346 36.4771L120.429 37.9188L120.239 39.6525L119.65 41.1125L119.27 42.5908L119.327 43.996L119.916 45.8028L122.9 54.9642L123.622 56.7162L124.705 57.9207L126.225 59.034L127.555 60.0195L128.372 61.0962L128.429 62.5562L127.897 63.6512L126.985 64.5637L126.035 65.0565L124.743 65.1112L123.622 64.7462L123.052 64.3995Z" fill="#0D6D72"/>
<path d="M272.031 37.772L272.64 38.4837L272.982 39.5057L273.001 40.6007L272.507 41.4767L271.841 42.1337L271.043 42.4987L270.074 42.5899L269.048 42.3527L268.003 41.568L267.091 40.4L266.217 39.4875L265.286 38.8852L264.088 38.3742L262.758 37.9727L254.036 35.9835L252.364 35.7097H250.73L249.076 36.093L247.518 36.6587L246.397 36.969L245.01 37.042L243.604 36.4945L242.654 35.7462L242.16 34.414L242.673 33.027L243.357 32.005L244.155 31.4027L244.763 31.1472L244.079 30.472L243.661 29.6142L243.642 28.574L244.098 27.333L245.219 26.3657L247.062 26.2197L248.525 27.2782L249.533 28.5192L250.654 29.5777L251.927 30.2712L253.827 30.7275L263.537 32.9905L265.476 33.319L267.11 33.0452L268.896 32.37L270.454 31.786L271.841 31.6765L273.172 32.37L273.856 33.392L274.198 34.6147L274.16 35.655L273.533 36.7317L272.64 37.4617L272.031 37.772Z" fill="#0D6D72"/>
<path d="M406.919 37.772L407.527 38.4837L407.869 39.5057L407.888 40.6007L407.394 41.4767L406.729 42.1337L405.931 42.4987L404.962 42.5899L403.936 42.3527L402.891 41.568L401.979 40.4L401.104 39.4875L400.173 38.8852L398.976 38.3742L397.646 37.9727L388.924 35.9835L387.252 35.7097H385.617L383.964 36.093L382.406 36.6587L381.285 36.969L379.898 37.042L378.491 36.4945L377.541 35.7462L377.047 34.414L377.56 33.027L378.244 32.005L379.043 31.4027L379.651 31.1472L378.966 30.472L378.548 29.6142L378.529 28.574L378.985 27.333L380.107 26.3657L381.95 26.2197L383.413 27.2782L384.42 28.5192L385.541 29.5777L386.815 30.2712L388.715 30.7275L398.425 32.9905L400.363 33.319L401.998 33.0452L403.784 32.37L405.342 31.786L406.729 31.6765L408.059 32.37L408.743 33.392L409.085 34.6147L409.047 35.655L408.42 36.7317L407.527 37.4617L406.919 37.772Z" fill="#0D6D72"/>
<path d="M243.452 135.062L244.383 135.281L245.295 135.865L246.017 136.741L246.169 137.727L246.074 138.639L245.675 139.388L244.972 140.026L243.984 140.446L242.673 140.428L241.209 140.026L239.936 139.826L238.815 139.899L237.542 140.191L236.231 140.665L228.06 144.187L226.558 144.954L225.266 145.921L224.202 147.18L223.328 148.531L222.625 149.462L221.58 150.338L220.117 150.721L218.881 150.684L217.646 149.918L217.171 148.531L217.057 147.29L217.323 146.359L217.646 145.793L216.658 145.666L215.803 145.228L215.119 144.425L214.682 143.165L214.967 141.742L216.335 140.537H218.159L219.737 140.921L221.314 141.103L222.758 140.902L224.544 140.136L233.684 136.249L235.433 135.373L236.554 134.205L237.523 132.635L238.397 131.248L239.423 130.336L240.924 130.117L242.122 130.518L243.167 131.285L243.775 132.142L243.984 133.347L243.737 134.46L243.452 135.062Z" fill="#0D6D72"/>
<path d="M378.339 135.062L379.27 135.281L380.183 135.865L380.905 136.741L381.057 137.727L380.962 138.639L380.563 139.388L379.86 140.026L378.871 140.446L377.56 140.428L376.097 140.026L374.824 139.826L373.703 139.899L372.43 140.191L371.118 140.665L362.947 144.187L361.446 144.954L360.154 145.921L359.09 147.18L358.216 148.531L357.513 149.462L356.467 150.338L355.004 150.721L353.769 150.684L352.534 149.918L352.059 148.531L351.945 147.29L352.211 146.359L352.534 145.793L351.546 145.666L350.691 145.228L350.007 144.425L349.57 143.165L349.855 141.742L351.223 140.537H353.047L354.624 140.921L356.201 141.103L357.646 140.902L359.432 140.136L368.572 136.249L370.32 135.373L371.441 134.205L372.411 132.635L373.285 131.248L374.311 130.336L375.812 130.117L377.009 130.518L378.054 131.285L378.662 132.142L378.871 133.347L378.624 134.46L378.339 135.062Z" fill="#0D6D72"/>
<path d="M102.073 196.912C100.23 197.569 99.8497 200.142 101.807 200.909C102.643 201.237 103.669 201.018 104.277 200.379C104.885 199.741 105.018 198.737 104.619 197.97C104.182 197.149 103.023 196.583 102.073 196.912Z" fill="#0D6D72"/>
<path d="M35.9253 83.4884C32.8469 84.5834 32.2008 88.9086 35.4883 90.1861C36.8754 90.7336 38.6047 90.3504 39.6118 89.2919C40.6189 88.2334 40.866 86.5544 40.1819 85.2769C39.4408 83.8717 37.5215 82.9227 35.9253 83.4884Z" fill="#0D6D72"/>
<path d="M74.5004 115.426C71.422 116.521 70.7759 120.846 74.0633 122.124C75.4505 122.671 77.1797 122.288 78.1869 121.229C79.194 120.171 79.441 118.492 78.7569 117.214C78.0158 115.809 76.0966 114.86 74.5004 115.426Z" fill="#0D6D72"/>
<path d="M33.664 97.8146C31.8208 98.4716 31.4407 101.045 33.398 101.811C34.2341 102.14 35.2602 101.921 35.8683 101.282C36.4764 100.643 36.6094 99.6396 36.2104 98.8731C35.7733 98.0519 34.6141 97.4861 33.664 97.8146Z" fill="#0D6D72"/>
<path d="M61.2176 123.73C59.3744 124.387 58.9943 126.96 60.9516 127.726C61.7877 128.055 62.8138 127.836 63.4219 127.197C64.03 126.558 64.163 125.555 63.764 124.788C63.3269 123.967 62.1678 123.401 61.2176 123.73Z" fill="#0D6D72"/>
<path d="M107.774 132.489C105.931 133.146 105.55 135.72 107.508 136.486C108.344 136.815 109.37 136.596 109.978 135.957C110.586 135.318 110.719 134.314 110.32 133.548C109.883 132.727 108.724 132.161 107.774 132.489Z" fill="#0D6D72"/>
<path d="M54.9468 107.724C53.6546 108.18 53.3886 109.987 54.7568 110.534C55.3458 110.753 56.0679 110.607 56.486 110.169C56.904 109.731 57.0181 109.02 56.733 108.49C56.41 107.888 55.6119 107.487 54.9468 107.724Z" fill="#0D6D72"/>
<path d="M121.057 79.4733C117.978 80.5683 117.332 84.8935 120.619 86.171C122.007 86.7185 123.736 86.3352 124.743 85.2767C125.75 84.2182 125.997 82.5393 125.313 81.2618C124.572 79.8565 122.653 78.9075 121.057 79.4733Z" fill="#0D6D72"/>
<path d="M113.665 89.0544C111.821 89.7114 111.441 92.2846 113.399 93.0511C114.235 93.3796 115.261 93.1606 115.869 92.5219C116.477 91.8831 116.61 90.8794 116.211 90.1129C115.774 89.2916 114.615 88.7259 113.665 89.0544Z" fill="#0D6D72"/>
<path d="M103.973 82.1742C102.681 82.6304 102.415 84.4372 103.783 84.9847C104.372 85.2037 105.094 85.0577 105.512 84.6197C105.931 84.1817 106.045 83.47 105.76 82.9407C105.436 82.3384 104.638 81.9369 103.973 82.1742Z" fill="#0D6D72"/>
<path d="M127.346 119.769C126.054 120.225 125.788 122.032 127.156 122.579C127.745 122.798 128.468 122.652 128.886 122.214C129.304 121.776 129.418 121.065 129.133 120.535C128.81 119.933 128.011 119.532 127.346 119.769Z" fill="#0D6D72"/>
<path d="M4.40016 140.391C3.10799 140.848 2.84195 142.654 4.21013 143.202C4.79921 143.421 5.5213 143.275 5.93936 142.837C6.35741 142.399 6.47143 141.687 6.18639 141.158C5.86335 140.556 5.06525 140.154 4.40016 140.391Z" fill="#0D6D72"/>
<path d="M152.221 130.391C149.142 131.486 148.496 135.811 151.784 137.088C153.171 137.636 154.9 137.253 155.907 136.194C156.914 135.136 157.161 133.457 156.477 132.179C155.736 130.774 153.817 129.825 152.221 130.391Z" fill="#0D6D72"/>
<path d="M195.356 83.4884C192.278 84.5834 191.632 88.9086 194.919 90.1861C196.306 90.7336 198.036 90.3504 199.043 89.2919C200.05 88.2334 200.297 86.5544 199.613 85.2769C198.872 83.8717 196.953 82.9227 195.356 83.4884Z" fill="#0D6D72"/>
<path d="M330.244 83.4884C327.166 84.5834 326.519 88.9086 329.807 90.1861C331.194 90.7336 332.923 90.3504 333.93 89.2919C334.938 88.2334 335.185 86.5544 334.501 85.2769C333.759 83.8717 331.84 82.9227 330.244 83.4884Z" fill="#0D6D72"/>
<path d="M246.663 109.038C243.585 110.133 242.939 114.458 246.226 115.736C247.613 116.283 249.342 115.9 250.35 114.842C251.357 113.783 251.604 112.104 250.92 110.827C250.178 109.421 248.259 108.472 246.663 109.038Z" fill="#0D6D72"/>
<path d="M381.551 109.038C378.472 110.133 377.826 114.458 381.114 115.736C382.501 116.283 384.23 115.9 385.237 114.842C386.244 113.783 386.491 112.104 385.807 110.827C385.066 109.421 383.147 108.472 381.551 109.038Z" fill="#0D6D72"/>
<path d="M193.095 97.8146C191.252 98.4716 190.872 101.045 192.829 101.811C193.665 102.14 194.691 101.921 195.299 101.282C195.907 100.643 196.04 99.6396 195.641 98.8731C195.204 98.0519 194.045 97.4861 193.095 97.8146Z" fill="#0D6D72"/>
<path d="M327.983 97.8146C326.14 98.4716 325.759 101.045 327.717 101.811C328.553 102.14 329.579 101.921 330.187 101.282C330.795 100.643 330.928 99.6396 330.529 98.8731C330.092 98.0519 328.933 97.4861 327.983 97.8146Z" fill="#0D6D72"/>
<path d="M233.38 117.342C231.537 117.999 231.157 120.572 233.114 121.339C233.95 121.667 234.977 121.448 235.585 120.81C236.193 120.171 236.326 119.167 235.927 118.4C235.49 117.579 234.33 117.013 233.38 117.342Z" fill="#0D6D72"/>
<path d="M368.268 117.342C366.425 117.999 366.045 120.572 368.002 121.339C368.838 121.667 369.864 121.448 370.472 120.81C371.08 120.171 371.213 119.167 370.814 118.4C370.377 117.579 369.218 117.013 368.268 117.342Z" fill="#0D6D72"/>
<path d="M267.205 132.489C265.362 133.146 264.981 135.72 266.939 136.486C267.775 136.815 268.801 136.596 269.409 135.957C270.017 135.318 270.15 134.314 269.751 133.548C269.314 132.727 268.155 132.161 267.205 132.489Z" fill="#0D6D72"/>
<path d="M402.092 132.489C400.249 133.146 399.869 135.72 401.826 136.486C402.663 136.815 403.689 136.596 404.297 135.957C404.905 135.318 405.038 134.314 404.639 133.548C404.202 132.727 403.043 132.161 402.092 132.489Z" fill="#0D6D72"/>
<path d="M219.699 114.294C218.406 114.751 218.14 116.557 219.509 117.105C220.098 117.324 220.82 117.178 221.238 116.74C221.656 116.302 221.77 115.59 221.485 115.061C221.162 114.459 220.364 114.057 219.699 114.294Z" fill="#0D6D72"/>
<path d="M354.586 114.294C353.294 114.751 353.028 116.557 354.396 117.105C354.985 117.324 355.707 117.178 356.125 116.74C356.543 116.302 356.657 115.59 356.372 115.061C356.049 114.459 355.251 114.057 354.586 114.294Z" fill="#0D6D72"/>
<path d="M280.487 79.4733C277.409 80.5683 276.763 84.8935 280.05 86.171C281.438 86.7185 283.167 86.3352 284.174 85.2767C285.181 84.2182 285.428 82.5393 284.744 81.2618C284.003 79.8565 282.084 78.9075 280.487 79.4733Z" fill="#0D6D72"/>
<path d="M273.096 89.0544C271.252 89.7114 270.872 92.2846 272.829 93.0511C273.666 93.3796 274.692 93.1606 275.3 92.5219C275.908 91.8831 276.041 90.8794 275.642 90.1129C275.205 89.2916 274.046 88.7259 273.096 89.0544Z" fill="#0D6D72"/>
<path d="M407.983 89.0544C406.14 89.7114 405.76 92.2846 407.717 93.0511C408.553 93.3796 409.579 93.1606 410.188 92.5219C410.796 91.8831 410.929 90.8794 410.53 90.1129C410.092 89.2916 408.933 88.7259 407.983 89.0544Z" fill="#0D6D72"/>
<path d="M263.404 82.1742C262.112 82.6304 261.846 84.4372 263.214 84.9847C263.803 85.2037 264.525 85.0577 264.943 84.6197C265.362 84.1817 265.476 83.47 265.19 82.9407C264.867 82.3384 264.069 81.9369 263.404 82.1742Z" fill="#0D6D72"/>
<path d="M398.292 82.1742C397 82.6304 396.734 84.4372 398.102 84.9847C398.691 85.2037 399.413 85.0577 399.831 84.6197C400.249 84.1817 400.363 83.47 400.078 82.9407C399.755 82.3384 398.957 81.9369 398.292 82.1742Z" fill="#0D6D72"/>
<path d="M286.777 119.769C285.485 120.225 285.219 122.032 286.587 122.579C287.176 122.798 287.899 122.652 288.317 122.214C288.735 121.776 288.849 121.065 288.564 120.535C288.241 119.933 287.443 119.532 286.777 119.769Z" fill="#0D6D72"/>
<path d="M150.529 105.844C148.686 106.501 148.306 109.075 150.263 109.841C151.099 110.17 152.126 109.951 152.734 109.312C153.342 108.673 153.475 107.669 153.076 106.903C152.639 106.082 151.48 105.516 150.529 105.844Z" fill="#0D6D72"/>
<path d="M136.848 102.797C135.555 103.253 135.289 105.06 136.658 105.607C137.247 105.826 137.969 105.68 138.387 105.242C138.805 104.804 138.919 104.092 138.634 103.563C138.311 102.961 137.513 102.559 136.848 102.797Z" fill="#0D6D72"/>
<path d="M163.831 140.391C162.539 140.848 162.273 142.654 163.641 143.202C164.23 143.421 164.952 143.275 165.37 142.837C165.788 142.399 165.902 141.687 165.617 141.158C165.294 140.556 164.496 140.154 163.831 140.391Z" fill="#0D6D72"/>
<path d="M35.9253 7.75111C32.8469 8.8461 32.2008 13.1713 35.4883 14.4488C36.8754 14.9963 38.6047 14.6131 39.6118 13.5546C40.6189 12.4961 40.866 10.8171 40.1819 9.5396C39.4408 8.13436 37.5215 7.18536 35.9253 7.75111Z" fill="#0D6D72"/>
<path d="M70.1298 55.2008C67.0514 56.2958 66.4053 60.6211 69.6928 61.8986C71.0799 62.4461 72.8092 62.0629 73.8163 61.0043C74.8234 59.9458 75.0705 58.2668 74.3864 56.9893C73.6453 55.5841 71.726 54.6351 70.1298 55.2008Z" fill="#0D6D72"/>
<path d="M33.664 22.0773C31.8208 22.7343 31.4407 25.3076 33.398 26.0741C34.2341 26.4025 35.2602 26.1836 35.8683 25.5448C36.4764 24.9061 36.6094 23.9023 36.2104 23.1358C35.7733 22.3146 34.6141 21.7488 33.664 22.0773Z" fill="#0D6D72"/>
<path d="M56.8471 63.5046C55.0038 64.1616 54.6238 66.7348 56.581 67.5013C57.4171 67.8298 58.4433 67.6108 59.0514 66.9721C59.6594 66.3333 59.7925 65.3296 59.3934 64.5631C58.9563 63.7418 57.7972 63.1761 56.8471 63.5046Z" fill="#0D6D72"/>
<path d="M107.774 56.7521C105.931 57.4091 105.55 59.9823 107.508 60.7488C108.344 61.0773 109.37 60.8583 109.978 60.2196C110.586 59.5808 110.719 58.5771 110.32 57.8106C109.883 56.9894 108.724 56.4236 107.774 56.7521Z" fill="#0D6D72"/>
<path d="M47.5358 44.9447C46.2437 45.4009 45.9776 47.2077 47.3458 47.7552C47.9349 47.9742 48.657 47.8282 49.075 47.3902C49.4931 46.9522 49.6071 46.2404 49.3221 45.7112C48.999 45.1089 48.2009 44.7074 47.5358 44.9447Z" fill="#0D6D72"/>
<path d="M121.057 3.73598C117.978 4.83098 117.332 9.15623 120.619 10.4337C122.007 10.9812 123.736 10.598 124.743 9.53948C125.75 8.48098 125.997 6.80198 125.313 5.52448C124.572 4.11923 122.653 3.17022 121.057 3.73598Z" fill="#0D6D72"/>
<path d="M113.665 13.3176C111.821 13.9746 111.441 16.5478 113.399 17.3143C114.235 17.6428 115.261 17.4238 115.869 16.7851C116.477 16.1463 116.61 15.1426 116.211 14.3761C115.774 13.5548 114.615 12.9891 113.665 13.3176Z" fill="#0D6D72"/>
<path d="M103.973 6.43737C102.681 6.89363 102.415 8.7004 103.783 9.24791C104.372 9.46692 105.094 9.32091 105.512 8.88291C105.931 8.4449 106.045 7.73314 105.76 7.20388C105.436 6.60162 104.638 6.20012 103.973 6.43737Z" fill="#0D6D72"/>
<path d="M127.346 44.0321C126.054 44.4883 125.788 46.2951 127.156 46.8426C127.745 47.0616 128.468 46.9156 128.886 46.4776C129.304 46.0396 129.418 45.3278 129.133 44.7986C128.81 44.1963 128.011 43.7948 127.346 44.0321Z" fill="#0D6D72"/>
<path d="M4.40016 64.6547C3.10799 65.1109 2.84195 66.9176 4.21013 67.4651C4.79921 67.6841 5.5213 67.5381 5.93936 67.1001C6.35741 66.6621 6.47143 65.9504 6.18639 65.4211C5.86335 64.8189 5.06525 64.4174 4.40016 64.6547Z" fill="#0D6D72"/>
<path d="M152.221 54.6535C149.142 55.7484 148.496 60.0737 151.784 61.3512C153.171 61.8986 154.9 61.5154 155.907 60.4569C156.914 59.3984 157.161 57.7194 156.477 56.4419C155.736 55.0367 153.817 54.0877 152.221 54.6535Z" fill="#0D6D72"/>
<path d="M195.356 7.75111C192.278 8.8461 191.632 13.1713 194.919 14.4488C196.306 14.9963 198.036 14.6131 199.043 13.5546C200.05 12.4961 200.297 10.8171 199.613 9.5396C198.872 8.13436 196.953 7.18536 195.356 7.75111Z" fill="#0D6D72"/>
<path d="M330.244 7.75111C327.166 8.8461 326.519 13.1713 329.807 14.4488C331.194 14.9963 332.923 14.6131 333.93 13.5546C334.938 12.4961 335.185 10.8171 334.501 9.5396C333.759 8.13436 331.84 7.18536 330.244 7.75111Z" fill="#0D6D72"/>
<path d="M233.931 39.6886C230.853 40.7836 230.207 45.1089 233.494 46.3864C234.881 46.9339 236.611 46.5506 237.618 45.4921C238.625 44.4336 238.872 42.7546 238.188 41.4771C237.447 40.0719 235.528 39.1229 233.931 39.6886Z" fill="#0D6D72"/>
<path d="M368.819 39.6886C365.741 40.7836 365.095 45.1089 368.382 46.3864C369.769 46.9339 371.498 46.5506 372.506 45.4921C373.513 44.4336 373.76 42.7546 373.076 41.4771C372.335 40.0719 370.415 39.1229 368.819 39.6886Z" fill="#0D6D72"/>
<path d="M206.967 28.8298C205.124 29.4868 204.744 32.06 206.701 32.8265C207.537 33.155 208.563 32.936 209.171 32.2972C209.779 31.6585 209.912 30.6548 209.513 29.8883C209.076 29.067 207.917 28.5013 206.967 28.8298Z" fill="#0D6D72"/>
<path d="M341.854 28.8298C340.011 29.4868 339.631 32.06 341.588 32.8265C342.425 33.155 343.451 32.936 344.059 32.2972C344.667 31.6585 344.8 30.6548 344.401 29.8883C343.964 29.067 342.805 28.5013 341.854 28.8298Z" fill="#0D6D72"/>
<path d="M220.649 47.9924C218.805 48.6494 218.425 51.2226 220.383 51.9891C221.219 52.3176 222.245 52.0986 222.853 51.4599C223.461 50.8211 223.594 49.8174 223.195 49.0509C222.758 48.2296 221.599 47.6639 220.649 47.9924Z" fill="#0D6D72"/>
<path d="M355.536 47.9924C353.693 48.6494 353.313 51.2226 355.27 51.9891C356.106 52.3176 357.133 52.0986 357.741 51.4599C358.349 50.8211 358.482 49.8174 358.083 49.0509C357.646 48.2296 356.486 47.6639 355.536 47.9924Z" fill="#0D6D72"/>
<path d="M267.205 56.7521C265.362 57.4091 264.981 59.9823 266.939 60.7488C267.775 61.0773 268.801 60.8583 269.409 60.2196C270.017 59.5808 270.15 58.5771 269.751 57.8106C269.314 56.9894 268.155 56.4236 267.205 56.7521Z" fill="#0D6D72"/>
<path d="M402.092 56.7521C400.249 57.4091 399.869 59.9823 401.826 60.7488C402.663 61.0773 403.689 60.8583 404.297 60.2196C404.905 59.5808 405.038 58.5771 404.639 57.8106C404.202 56.9894 403.043 56.4236 402.092 56.7521Z" fill="#0D6D72"/>
<path d="M206.967 44.9447C205.675 45.4009 205.409 47.2077 206.777 47.7552C207.366 47.9742 208.088 47.8282 208.506 47.3902C208.924 46.9522 209.038 46.2404 208.753 45.7112C208.43 45.1089 207.632 44.7074 206.967 44.9447Z" fill="#0D6D72"/>
<path d="M341.855 44.9447C340.562 45.4009 340.296 47.2077 341.665 47.7552C342.254 47.9742 342.976 47.8282 343.394 47.3902C343.812 46.9522 343.926 46.2404 343.641 45.7112C343.318 45.1089 342.52 44.7074 341.855 44.9447Z" fill="#0D6D72"/>
<path d="M280.487 3.73598C277.409 4.83098 276.763 9.15623 280.05 10.4337C281.438 10.9812 283.167 10.598 284.174 9.53948C285.181 8.48098 285.428 6.80198 284.744 5.52448C284.003 4.11923 282.084 3.17022 280.487 3.73598Z" fill="#0D6D72"/>
<path d="M273.096 13.3176C271.252 13.9746 270.872 16.5478 272.829 17.3143C273.666 17.6428 274.692 17.4238 275.3 16.7851C275.908 16.1463 276.041 15.1426 275.642 14.3761C275.205 13.5548 274.046 12.9891 273.096 13.3176Z" fill="#0D6D72"/>
<path d="M407.983 13.3176C406.14 13.9746 405.76 16.5478 407.717 17.3143C408.553 17.6428 409.579 17.4238 410.188 16.7851C410.796 16.1463 410.929 15.1426 410.53 14.3761C410.092 13.5548 408.933 12.9891 407.983 13.3176Z" fill="#0D6D72"/>
<path d="M263.404 6.43737C262.112 6.89363 261.846 8.7004 263.214 9.24791C263.803 9.46692 264.525 9.32091 264.943 8.88291C265.362 8.4449 265.476 7.73314 265.19 7.20388C264.867 6.60162 264.069 6.20012 263.404 6.43737Z" fill="#0D6D72"/>
<path d="M398.292 6.43737C397 6.89363 396.734 8.7004 398.102 9.24791C398.691 9.46692 399.413 9.32091 399.831 8.88291C400.249 8.4449 400.363 7.73314 400.078 7.20388C399.755 6.60162 398.957 6.20012 398.292 6.43737Z" fill="#0D6D72"/>
<path d="M286.777 44.0321C285.485 44.4883 285.219 46.2951 286.587 46.8426C287.176 47.0616 287.899 46.9156 288.317 46.4776C288.735 46.0396 288.849 45.3278 288.564 44.7986C288.241 44.1963 287.443 43.7948 286.777 44.0321Z" fill="#0D6D72"/>
<path d="M150.529 30.1071C148.686 30.7641 148.306 33.3374 150.263 34.1039C151.099 34.4324 152.126 34.2134 152.734 33.5746C153.342 32.9359 153.475 31.9321 153.076 31.1656C152.639 30.3444 151.48 29.7786 150.529 30.1071Z" fill="#0D6D72"/>
<path d="M136.848 27.0594C135.555 27.5157 135.289 29.3224 136.658 29.8699C137.247 30.0889 137.969 29.9429 138.387 29.5049C138.805 29.0669 138.919 28.3552 138.634 27.8259C138.311 27.2237 137.513 26.8222 136.848 27.0594Z" fill="#0D6D72"/>
<path d="M163.831 64.6547C162.539 65.1109 162.273 66.9176 163.641 67.4651C164.23 67.6841 164.952 67.5381 165.37 67.1001C165.788 66.6621 165.902 65.9504 165.617 65.4211C165.294 64.8189 164.496 64.4174 163.831 64.6547Z" fill="#0D6D72"/>
<path d="M35.9253 158.678C32.8469 159.773 32.2008 164.098 35.4883 165.376C36.8754 165.923 38.6047 165.54 39.6118 164.481C40.6189 163.423 40.866 161.744 40.1819 160.466C39.4408 159.061 37.5215 158.112 35.9253 158.678Z" fill="#0D6D72"/>
<path d="M70.6999 194.996C67.6215 196.091 66.9754 200.416 70.2628 201.694C71.65 202.241 73.3792 201.858 74.3864 200.799C75.3935 199.741 75.6405 198.062 74.9564 196.784C74.2153 195.379 72.2961 194.43 70.6999 194.996Z" fill="#0D6D72"/>
<path d="M33.664 173.004C31.8208 173.661 31.4407 176.234 33.398 177.001C34.2341 177.329 35.2602 177.11 35.8683 176.472C36.4764 175.833 36.6094 174.829 36.2104 174.063C35.7733 173.241 34.6141 172.676 33.664 173.004Z" fill="#0D6D72"/>
<path d="M54.9468 180.541C53.6546 180.998 53.3886 182.804 54.7568 183.352C55.3458 183.571 56.0679 183.425 56.486 182.987C56.904 182.549 57.0181 181.837 56.733 181.308C56.41 180.706 55.6119 180.304 54.9468 180.541Z" fill="#0D6D72"/>
<path d="M121.057 154.663C117.978 155.758 117.332 160.083 120.619 161.361C122.007 161.908 123.736 161.525 124.743 160.467C125.75 159.408 125.997 157.729 125.313 156.452C124.572 155.046 122.653 154.097 121.057 154.663Z" fill="#0D6D72"/>
<path d="M113.665 164.244C111.821 164.901 111.441 167.475 113.399 168.241C114.235 168.57 115.261 168.351 115.869 167.712C116.477 167.073 116.61 166.069 116.211 165.303C115.774 164.482 114.615 163.916 113.665 164.244Z" fill="#0D6D72"/>
<path d="M103.973 157.364C102.681 157.82 102.415 159.627 103.783 160.175C104.372 160.394 105.094 160.248 105.512 159.81C105.931 159.372 106.045 158.66 105.76 158.131C105.436 157.528 104.638 157.127 103.973 157.364Z" fill="#0D6D72"/>
<path d="M127.346 189.849C126.054 190.305 125.788 192.112 127.156 192.659C127.745 192.878 128.468 192.732 128.886 192.294C129.304 191.856 129.418 191.145 129.133 190.615C128.81 190.013 128.011 189.612 127.346 189.849Z" fill="#0D6D72"/>
<path d="M149.56 196.273C146.482 197.368 145.836 201.693 149.123 202.971C150.51 203.518 152.24 203.135 153.247 202.077C154.254 201.018 154.501 199.339 153.817 198.062C153.076 196.656 151.157 195.707 149.56 196.273Z" fill="#0D6D72"/>
<path d="M195.356 158.678C192.278 159.773 191.632 164.098 194.919 165.376C196.306 165.923 198.036 165.54 199.043 164.481C200.05 163.423 200.297 161.744 199.613 160.466C198.872 159.061 196.953 158.112 195.356 158.678Z" fill="#0D6D72"/>
<path d="M330.244 158.678C327.166 159.773 326.519 164.098 329.807 165.376C331.194 165.923 332.923 165.54 333.93 164.481C334.938 163.423 335.185 161.744 334.501 160.466C333.759 159.061 331.84 158.112 330.244 158.678Z" fill="#0D6D72"/>
<path d="M225.38 188.791C222.302 189.886 221.656 194.211 224.943 195.488C226.33 196.036 228.06 195.653 229.067 194.594C230.074 193.536 230.321 191.857 229.637 190.579C228.896 189.174 226.976 188.225 225.38 188.791Z" fill="#0D6D72"/>
<path d="M360.268 188.791C357.189 189.886 356.543 194.211 359.831 195.488C361.218 196.036 362.947 195.653 363.954 194.594C364.962 193.536 365.209 191.857 364.524 190.579C363.783 189.174 361.864 188.225 360.268 188.791Z" fill="#0D6D72"/>
<path d="M193.095 173.004C191.252 173.661 190.872 176.234 192.829 177.001C193.665 177.329 194.691 177.11 195.299 176.472C195.907 175.833 196.04 174.829 195.641 174.063C195.204 173.241 194.045 172.676 193.095 173.004Z" fill="#0D6D72"/>
<path d="M327.983 173.004C326.14 173.661 325.759 176.234 327.717 177.001C328.553 177.329 329.579 177.11 330.187 176.472C330.795 175.833 330.928 174.829 330.529 174.063C330.092 173.241 328.933 172.676 327.983 173.004Z" fill="#0D6D72"/>
<path d="M206.777 195.452C204.934 196.109 204.554 198.682 206.511 199.449C207.347 199.777 208.373 199.558 208.981 198.919C209.589 198.281 209.722 197.277 209.323 196.51C208.886 195.689 207.727 195.123 206.777 195.452Z" fill="#0D6D72"/>
<path d="M341.665 195.452C339.821 196.109 339.441 198.682 341.398 199.449C342.235 199.777 343.261 199.558 343.869 198.919C344.477 198.281 344.61 197.277 344.211 196.51C343.774 195.689 342.615 195.123 341.665 195.452Z" fill="#0D6D72"/>
<path d="M280.487 154.663C277.409 155.758 276.763 160.083 280.05 161.361C281.438 161.908 283.167 161.525 284.174 160.467C285.181 159.408 285.428 157.729 284.744 156.452C284.003 155.046 282.084 154.097 280.487 154.663Z" fill="#0D6D72"/>
<path d="M273.096 164.244C271.252 164.901 270.872 167.475 272.829 168.241C273.666 168.57 274.692 168.351 275.3 167.712C275.908 167.073 276.041 166.069 275.642 165.303C275.205 164.482 274.046 163.916 273.096 164.244Z" fill="#0D6D72"/>
<path d="M407.983 164.244C406.14 164.901 405.76 167.475 407.717 168.241C408.553 168.57 409.579 168.351 410.188 167.712C410.796 167.073 410.929 166.069 410.53 165.303C410.092 164.482 408.933 163.916 407.983 164.244Z" fill="#0D6D72"/>
<path d="M263.404 157.364C262.112 157.82 261.846 159.627 263.214 160.175C263.803 160.394 264.525 160.248 264.943 159.81C265.362 159.372 265.476 158.66 265.19 158.131C264.867 157.528 264.069 157.127 263.404 157.364Z" fill="#0D6D72"/>
<path d="M398.292 157.364C397 157.82 396.734 159.627 398.102 160.175C398.691 160.394 399.413 160.248 399.831 159.81C400.249 159.372 400.363 158.66 400.078 158.131C399.755 157.528 398.957 157.127 398.292 157.364Z" fill="#0D6D72"/>
<path d="M150.529 181.034C148.686 181.691 148.306 184.265 150.263 185.031C151.099 185.36 152.126 185.141 152.734 184.502C153.342 183.863 153.475 182.859 153.076 182.093C152.639 181.272 151.48 180.706 150.529 181.034Z" fill="#0D6D72"/>
<path d="M136.848 177.987C135.555 178.443 135.289 180.25 136.658 180.797C137.247 181.016 137.969 180.87 138.387 180.432C138.805 179.994 138.919 179.282 138.634 178.753C138.311 178.151 137.513 177.749 136.848 177.987Z" fill="#0D6D72"/>
</g>
</g>
</g>
</svg>
